<svg id="Message" xmlns="http://www.w3.org/2000/svg" width="26" height="24" viewBox="0 0 26 24">
  <path id="Combined-Shape" d="M18.936,1C22.963,1,26,4.344,26,8.778v8.453a8.128,8.128,0,0,1-2.221,5.775A6.626,6.626,0,0,1,18.956,25H7.04a6.621,6.621,0,0,1-4.819-1.994A8.128,8.128,0,0,1,0,17.231V8.778C0,4.344,3.036,1,7.063,1Zm0,1.846H7.063c-3.041,0-5.25,2.495-5.25,5.932v8.453A6.28,6.28,0,0,0,3.5,21.7a4.854,4.854,0,0,0,3.542,1.456H18.936s.012,0,.019,0A4.852,4.852,0,0,0,22.5,21.7a6.274,6.274,0,0,0,1.688-4.466V8.778C24.186,5.341,21.978,2.846,18.936,2.846Zm1.906,5.7a.935.935,0,0,1-.132,1.3l-5.374,4.446a3.628,3.628,0,0,1-4.594.007L5.318,9.844a.936.936,0,0,1-.138-1.3.9.9,0,0,1,1.276-.139l5.419,4.446a1.841,1.841,0,0,0,2.325,0l5.364-4.438A.9.9,0,0,1,20.842,8.543Z" transform="translate(0 -1)" fill="orange" fill-rule="evenodd"/>
</svg>
