<svg id="Calling" xmlns="http://www.w3.org/2000/svg" width="25" height="24" viewBox="0 0 25 24">
  <path id="Combined-Shape" d="M5.573,0C6.91.018,7.862,1,9.067,2.238c.3.306.62.639.98.99A3.409,3.409,0,0,1,10.9,7.451c-.436,1.221-.812,2.275,1.444,4.483s3.332,1.839,4.579,1.41a3.594,3.594,0,0,1,4.316.829c.355.348.69.659,1,.948,1.272,1.185,2.277,2.12,2.294,3.431.013,1.117-.681,2.257-2.395,3.934l-.759-.5.643.612A4.494,4.494,0,0,1,18.656,24H18.62c-2.982,0-6.87-2.323-11.555-6.906C2.36,12.492-.017,8.677,0,5.753A4.324,4.324,0,0,1,1.435,2.461l.033-.035h0l.08-.079h0C3.266.667,4.446-.024,5.573,0ZM5.55,1.757h-.01c-.537,0-1.353.527-2.491,1.608l-.229.22h0a.721.721,0,0,1-.053.055l-.08.078h0a2.612,2.612,0,0,0-.9,2.045c-.01,1.675,1.116,4.786,6.538,10.089,5.4,5.278,8.57,6.392,10.287,6.392h.025a2.721,2.721,0,0,0,2.089-.876,2.514,2.514,0,0,1,.2-.188c1.193-1.174,1.8-2.046,1.8-2.607S22,17.327,21,16.391c-.319-.3-.666-.62-1.033-.979-.95-.926-1.418-.768-2.453-.412-1.43.491-3.389,1.163-6.441-1.826S8.7,8.271,9.2,6.871c.361-1.011.526-1.472-.422-2.4-.371-.363-.7-.707-1.012-1.023C6.816,2.471,6.131,1.765,5.55,1.757Zm10.3,2.409a6.1,6.1,0,0,1,4.9,4.791.879.879,0,0,1-.708,1.03.977.977,0,0,1-.174.016.892.892,0,0,1-.879-.709,4.334,4.334,0,0,0-3.478-3.4.878.878,0,0,1-.71-1.029A.9.9,0,0,1,15.85,4.165ZM15.779.007a10.266,10.266,0,0,1,9.216,9.006.882.882,0,0,1-.791.971.987.987,0,0,1-.1.006.89.89,0,0,1-.89-.78A8.5,8.5,0,0,0,15.58,1.752a.882.882,0,0,1-.792-.969A.884.884,0,0,1,15.779.007Z" transform="translate(0 0)" fill="orange" fill-rule="evenodd"/>
</svg>
