<svg xmlns="http://www.w3.org/2000/svg" version="1.1" viewBox="52.03 100.11 299.66 212.26">
<g stroke-width="2.00" fill="none" stroke-linecap="butt">
<path stroke="#6f0000" vector-effect="non-scaling-stroke" d="   M 226.42 153.91   Q 237.73 143.11 236.72 129.24   C 235.40 110.99 217.95 96.66 199.47 102.39   C 184.95 106.89 177.42 119.30 178.38 134.70   Q 178.56 137.57 181.77 138.69   Q 195.47 143.46 197.21 158.43   Q 197.27 158.91 197.70 159.11   C 208.83 164.37 225.26 163.35 237.35 162.87   A 0.42 0.41 85.6 0 0 237.75 162.40   C 237.57 161.02 228.11 155.69 226.55 154.86   A 0.59 0.59 0.0 0 1 226.42 153.91"/>
<path stroke="#808080" vector-effect="non-scaling-stroke" d="   M 160.30 173.10   L 152.34 178.37   A 0.34 0.34 0.0 0 0 152.53 179.00   C 161.13 178.99 174.06 180.31 181.19 177.56   Q 188.03 174.92 191.17 168.11   C 199.10 150.90 175.90 133.22 162.14 146.91   Q 150.49 158.51 160.44 172.35   Q 160.76 172.79 160.30 173.10"/>
<path stroke="#808080" vector-effect="non-scaling-stroke" d="   M 194.09 234.01   A 0.34 0.34 0.0 0 1 193.50 233.77   L 193.50 198.00   Q 193.50 197.50 193.00 197.50   L 177.00 197.50   Q 176.50 197.50 176.50 198.00   L 176.50 251.37   Q 176.50 252.00 177.12 252.00   L 192.22 252.00   A 0.64 0.64 0.0 0 0 192.82 251.59   Q 197.34 239.95 209.77 242.57   Q 216.78 244.05 219.12 251.54   A 0.66 0.65 -8.3 0 0 219.75 252.00   L 235.99 252.00   Q 236.49 252.00 236.43 251.50   C 235.25 241.97 229.70 232.67 220.70 229.06   C 211.76 225.48 200.93 226.68 194.09 234.01"/>
<path stroke="#808080" vector-effect="non-scaling-stroke" d="   M 241.75 241.65   A 0.39 0.39 0.0 0 0 242.14 242.04   L 252.36 241.97   A 0.39 0.39 0.0 0 1 252.75 242.36   L 252.75 251.61   A 0.39 0.39 0.0 0 0 253.14 252.00   L 269.36 252.00   A 0.39 0.39 0.0 0 0 269.75 251.61   L 269.75 242.36   A 0.39 0.39 0.0 0 1 270.14 241.97   L 284.61 242.06   A 0.39 0.39 0.0 0 0 285.00 241.67   L 285.00 228.89   A 0.39 0.39 0.0 0 0 284.61 228.50   L 270.14 228.50   A 0.39 0.39 0.0 0 1 269.75 228.11   L 269.75 212.39   A 0.39 0.39 0.0 0 0 269.36 212.00   L 253.14 212.00   A 0.39 0.39 0.0 0 0 252.75 212.39   L 252.75 228.11   A 0.39 0.39 0.0 0 1 252.36 228.50   L 242.14 228.50   A 0.39 0.39 0.0 0 0 241.75 228.89   L 241.75 241.65"/>
<path stroke="#808080" vector-effect="non-scaling-stroke" d="   M 87.24 251.35   Q 80.52 249.80 74.75 248.26   C 69.72 246.92 70.84 241.15 75.59 240.40   Q 82.45 239.32 87.22 244.29   Q 87.64 244.73 88.07 244.30   L 97.55 234.83   Q 97.98 234.40 97.53 233.98   C 83.84 221.23 50.09 225.36 54.77 250.83   A 1.46 1.45 84.8 0 0 56.20 252.03   Q 70.73 252.03 85.93 251.76   Q 86.61 251.75 87.23 251.62   A 0.14 0.14 0.0 0 0 87.24 251.35"/>
<path stroke="#808080" vector-effect="non-scaling-stroke" d="   M 288.76 228.37   Q 288.58 228.15 288.49 228.20   A 0.65 0.61 62.6 0 0 288.26 229.00   L 297.97 251.41   Q 298.22 252.00 298.86 252.00   L 314.97 252.00   Q 315.71 252.00 315.44 251.31   L 306.70 228.99   A 0.77 0.77 0.0 0 0 305.98 228.50   L 289.03 228.50   A 0.37 0.34 68.4 0 1 288.76 228.37"/>
<path stroke="#808080" vector-effect="non-scaling-stroke" d="   M 333.53 228.51   A 0.34 0.34 0.0 0 0 333.21 228.74   L 325.60 251.55   A 0.34 0.34 0.0 0 0 325.92 252.00   L 341.49 252.00   A 0.34 0.34 0.0 0 0 341.80 251.78   L 350.67 228.93   A 0.34 0.34 0.0 0 0 350.35 228.47   L 333.53 228.51"/>
<path stroke="#808080" vector-effect="non-scaling-stroke" d="   M 126.25 228.76   A 0.26 0.26 0.0 0 0 125.99 228.50   L 109.51 228.50   A 0.26 0.26 0.0 0 0 109.25 228.76   L 109.25 251.74   A 0.26 0.26 0.0 0 0 109.51 252.00   L 125.99 252.00   A 0.26 0.26 0.0 0 0 126.25 251.74   L 126.25 228.76"/>
<path stroke="#808080" vector-effect="non-scaling-stroke" d="   M 162.74 228.81   A 0.31 0.31 0.0 0 0 162.43 228.50   L 145.81 228.50   A 0.31 0.31 0.0 0 0 145.50 228.81   L 145.50 251.69   A 0.31 0.31 0.0 0 0 145.81 252.00   L 162.43 252.00   A 0.31 0.31 0.0 0 0 162.74 251.69   L 162.74 228.81"/>
<path stroke="#808080" vector-effect="non-scaling-stroke" d="   M 60.88 258.68   Q 69.69 262.25 78.53 263.91   Q 81.17 264.41 82.99 267.28   Q 83.29 267.76 83.12 268.29   Q 82.07 271.74 77.71 272.12   C 71.32 272.68 68.11 271.14 63.65 266.80   Q 63.16 266.33 62.70 266.84   L 53.19 277.45   Q 52.85 277.82 53.23 278.15   C 67.23 290.30 106.50 288.25 99.23 260.98   Q 98.87 259.61 97.76 258.42   Q 97.38 258.00 96.81 258.00   L 61.01 258.00   A 0.35 0.35 0.0 0 0 60.88 258.68"/>
<path stroke="#808080" vector-effect="non-scaling-stroke" d="   M 146.25 276.81   L 146.25 283.50   A 0.50 0.50 0.0 0 0 146.75 284.00   L 162.13 284.00   Q 162.75 284.00 162.75 283.37   L 162.75 258.63   Q 162.75 258.00 162.13 258.00   L 145.97 258.00   Q 145.33 258.00 145.30 258.64   C 144.98 264.65 143.05 269.73 136.54 270.23   C 128.34 270.86 126.78 265.35 126.40 258.59   Q 126.37 258.00 125.78 258.00   L 109.95 258.00   A 0.74 0.74 0.0 0 0 109.21 258.72   C 109.02 269.95 110.77 281.40 123.38 284.51   Q 137.69 288.03 145.89 276.69   A 0.20 0.20 0.0 0 1 146.25 276.81"/>
<path stroke="#808080" vector-effect="non-scaling-stroke" d="   M 192.90 277.06   C 198.37 283.57 205.76 286.25 214.33 284.78   Q 234.56 281.30 236.83 258.90   A 0.82 0.81 -87.1 0 0 236.02 258.00   L 220.29 258.00   Q 219.84 258.00 219.75 258.44   C 216.33 274.57 194.75 274.27 192.48 258.62   Q 192.39 258.00 191.76 258.00   L 177.12 258.00   Q 176.50 258.00 176.50 258.63   L 176.50 283.50   A 0.50 0.50 0.0 0 0 177.00 284.00   L 191.75 284.00   Q 192.25 284.00 192.25 283.50   L 192.25 277.30   Q 192.25 276.30 192.90 277.06"/>
<path stroke="#808080" vector-effect="non-scaling-stroke" d="   M 252.94 270.31   C 253.76 286.48 273.54 286.88 284.57 283.76   Q 285.00 283.64 285.00 283.19   L 285.00 270.23   A 0.51 0.51 0.0 0 0 284.29 269.76   C 273.58 274.19 269.46 268.64 269.86 258.62   A 0.60 0.60 0.0 0 0 269.26 258.00   L 253.25 258.00   Q 252.74 258.00 252.73 258.52   Q 252.64 264.44 252.94 270.31"/>
<path stroke="#808080" vector-effect="non-scaling-stroke" d="   M 320.66 264.71   L 318.21 258.49   Q 318.01 258.00 317.48 258.00   L 301.34 258.00   A 0.33 0.32 -11.4 0 0 301.04 258.45   L 312.16 283.87   A 1.47 1.45 -47.6 0 1 312.20 284.89   C 308.62 295.60 303.86 299.83 292.25 295.58   Q 291.66 295.36 291.56 295.98   L 289.46 308.74   Q 289.37 309.29 289.90 309.45   Q 298.33 312.07 307.22 311.12   C 319.15 309.85 321.68 303.02 326.12 291.87   Q 332.73 275.31 339.11 258.57   Q 339.33 258.00 338.72 258.00   L 323.97 258.00   Q 323.42 258.00 323.25 258.53   L 321.24 264.69   Q 320.98 265.51 320.66 264.71"/>
<path stroke="#ee8080" vector-effect="non-scaling-stroke" d="   M 219.96 126.08   C 219.87 124.13 221.23 118.72 217.15 120.28   Q 214.94 121.13 215.01 123.39   Q 215.06 124.99 213.46 124.99   L 206.00 125.00   Q 205.50 125.00 205.50 124.50   L 205.50 121.53   Q 205.50 121.08 205.95 121.06   C 209.33 120.88 213.12 121.00 216.15 120.02   C 218.42 119.29 228.04 115.49 222.60 111.84   A 0.99 0.98 50.1 0 0 221.68 111.75   C 216.58 113.92 213.97 115.77 208.06 115.20   Q 207.38 115.13 207.56 114.48   C 208.20 112.14 209.42 108.52 205.82 108.39   C 203.15 108.29 202.25 112.75 201.35 114.69   A 0.82 0.82 0.0 0 1 200.42 115.14   L 193.97 113.68   A 1.00 1.00 0.0 0 0 193.15 113.86   Q 191.52 115.08 191.96 116.81   C 192.64 119.48 196.91 119.91 199.37 120.26   Q 200.00 120.34 200.00 120.98   L 200.00 126.20   Q 200.00 126.71 199.51 126.86   Q 190.24 129.86 191.51 139.31   C 192.41 146.01 201.53 145.73 205.67 143.38   Q 212.38 139.57 216.92 131.88   Q 217.21 131.39 217.72 131.65   C 225.39 135.51 218.72 142.48 214.49 144.98   A 1.56 1.50 -3.3 0 0 213.88 145.64   Q 213.34 146.73 213.50 147.92   A 2.40 2.40 0.0 0 0 216.92 149.77   Q 221.26 147.69 224.39 143.60   C 228.72 137.93 226.93 129.91 220.41 126.77   Q 219.98 126.56 219.96 126.08"/>
<path stroke="#ee8080" vector-effect="non-scaling-stroke" d="   M 207.50 134.23   A 0.52 0.52 0.0 0 0 208.40 134.35   L 211.13 130.72   A 0.52 0.52 0.0 0 0 210.63 129.89   L 206.72 130.51   A 0.52 0.52 0.0 0 0 206.32 131.21   L 207.50 134.23"/>
<path stroke="#ee8080" vector-effect="non-scaling-stroke" d="   M 203.15 138.34   L 200.80 132.56   A 0.24 0.24 0.0 0 0 200.48 132.43   L 200.18 132.55   A 4.99 3.33 -22.2 0 0 196.81 137.52   L 196.84 137.58   A 4.99 3.33 -22.2 0 0 202.72 138.78   L 203.02 138.65   A 0.24 0.24 0.0 0 0 203.15 138.34"/>
<path stroke="#808080" vector-effect="non-scaling-stroke" d="   M 178.62 165.00   A 0.45 0.45 0.0 0 1 179.04 165.29   L 180.71 169.72   A 0.45 0.45 0.0 0 0 181.13 170.01   L 186.04 169.99   A 0.45 0.45 0.0 0 0 186.45 169.36   L 176.63 146.73   A 0.45 0.45 0.0 0 0 176.24 146.46   L 172.56 146.28   A 0.45 0.45 0.0 0 0 172.13 146.55   L 162.30 169.37   A 0.45 0.45 0.0 0 0 162.71 170.00   L 167.51 170.00   A 0.45 0.45 0.0 0 0 167.94 169.70   L 169.54 165.30   A 0.45 0.45 0.0 0 1 169.97 165.00   L 178.62 165.00"/>
<path stroke="#808080" vector-effect="non-scaling-stroke" d="   M 171.63 160.03   A 0.39 0.39 0.0 0 0 171.99 160.57   L 176.56 160.60   A 0.39 0.39 0.0 0 0 176.92 160.07   L 174.68 154.24   A 0.39 0.39 0.0 0 0 173.95 154.24   L 171.63 160.03"/>
</g>

<path fill="#dd0000" d="   M 226.42 153.91   A 0.59 0.59 0.0 0 0 226.55 154.86   C 228.11 155.69 237.57 161.02 237.75 162.40   A 0.42 0.41 85.6 0 1 237.35 162.87   C 225.26 163.35 208.83 164.37 197.70 159.11   Q 197.27 158.91 197.21 158.43   Q 195.47 143.46 181.77 138.69   Q 178.56 137.57 178.38 134.70   C 177.42 119.30 184.95 106.89 199.47 102.39   C 217.95 96.66 235.40 110.99 236.72 129.24   Q 237.73 143.11 226.42 153.91   Z   M 219.96 126.08   C 219.87 124.13 221.23 118.72 217.15 120.28   Q 214.94 121.13 215.01 123.39   Q 215.06 124.99 213.46 124.99   L 206.00 125.00   Q 205.50 125.00 205.50 124.50   L 205.50 121.53   Q 205.50 121.08 205.95 121.06   C 209.33 120.88 213.12 121.00 216.15 120.02   C 218.42 119.29 228.04 115.49 222.60 111.84   A 0.99 0.98 50.1 0 0 221.68 111.75   C 216.58 113.92 213.97 115.77 208.06 115.20   Q 207.38 115.13 207.56 114.48   C 208.20 112.14 209.42 108.52 205.82 108.39   C 203.15 108.29 202.25 112.75 201.35 114.69   A 0.82 0.82 0.0 0 1 200.42 115.14   L 193.97 113.68   A 1.00 1.00 0.0 0 0 193.15 113.86   Q 191.52 115.08 191.96 116.81   C 192.64 119.48 196.91 119.91 199.37 120.26   Q 200.00 120.34 200.00 120.98   L 200.00 126.20   Q 200.00 126.71 199.51 126.86   Q 190.24 129.86 191.51 139.31   C 192.41 146.01 201.53 145.73 205.67 143.38   Q 212.38 139.57 216.92 131.88   Q 217.21 131.39 217.72 131.65   C 225.39 135.51 218.72 142.48 214.49 144.98   A 1.56 1.50 -3.3 0 0 213.88 145.64   Q 213.34 146.73 213.50 147.92   A 2.40 2.40 0.0 0 0 216.92 149.77   Q 221.26 147.69 224.39 143.60   C 228.72 137.93 226.93 129.91 220.41 126.77   Q 219.98 126.56 219.96 126.08   Z"/>
<path fill="#ffffff" d="   M 220.41 126.77   C 226.93 129.91 228.72 137.93 224.39 143.60   Q 221.26 147.69 216.92 149.77   A 2.40 2.40 0.0 0 1 213.50 147.92   Q 213.34 146.73 213.88 145.64   A 1.56 1.50 -3.3 0 1 214.49 144.98   C 218.72 142.48 225.39 135.51 217.72 131.65   Q 217.21 131.39 216.92 131.88   Q 212.38 139.57 205.67 143.38   C 201.53 145.73 192.41 146.01 191.51 139.31   Q 190.24 129.86 199.51 126.86   Q 200.00 126.71 200.00 126.20   L 200.00 120.98   Q 200.00 120.34 199.37 120.26   C 196.91 119.91 192.64 119.48 191.96 116.81   Q 191.52 115.08 193.15 113.86   A 1.00 1.00 0.0 0 1 193.97 113.68   L 200.42 115.14   A 0.82 0.82 0.0 0 0 201.35 114.69   C 202.25 112.75 203.15 108.29 205.82 108.39   C 209.42 108.52 208.20 112.14 207.56 114.48   Q 207.38 115.13 208.06 115.20   C 213.97 115.77 216.58 113.92 221.68 111.75   A 0.99 0.98 50.1 0 1 222.60 111.84   C 228.04 115.49 218.42 119.29 216.15 120.02   C 213.12 121.00 209.33 120.88 205.95 121.06   Q 205.50 121.08 205.50 121.53   L 205.50 124.50   Q 205.50 125.00 206.00 125.00   L 213.46 124.99   Q 215.06 124.99 215.01 123.39   Q 214.94 121.13 217.15 120.28   C 221.23 118.72 219.87 124.13 219.96 126.08   Q 219.98 126.56 220.41 126.77   Z   M 207.50 134.23   A 0.52 0.52 0.0 0 0 208.40 134.35   L 211.13 130.72   A 0.52 0.52 0.0 0 0 210.63 129.89   L 206.72 130.51   A 0.52 0.52 0.0 0 0 206.32 131.21   L 207.50 134.23   Z   M 203.15 138.34   L 200.80 132.56   A 0.24 0.24 0.0 0 0 200.48 132.43   L 200.18 132.55   A 4.99 3.33 -22.2 0 0 196.81 137.52   L 196.84 137.58   A 4.99 3.33 -22.2 0 0 202.72 138.78   L 203.02 138.65   A 0.24 0.24 0.0 0 0 203.15 138.34   Z"/>
<path fill="#dd0000" d="   M 207.50 134.23   L 206.32 131.21   A 0.52 0.52 0.0 0 1 206.72 130.51   L 210.63 129.89   A 0.52 0.52 0.0 0 1 211.13 130.72   L 208.40 134.35   A 0.52 0.52 0.0 0 1 207.50 134.23   Z"/>
<path fill="#dd0000" d="   M 203.15 138.34   A 0.24 0.24 0.0 0 1 203.02 138.65   L 202.72 138.78   A 4.99 3.33 -22.2 0 1 196.84 137.58   L 196.81 137.52   A 4.99 3.33 -22.2 0 1 200.18 132.55   L 200.48 132.43   A 0.24 0.24 0.0 0 1 200.80 132.56   L 203.15 138.34   Z"/>
<path fill="#ffffff" d="   M 160.44 172.35   Q 150.49 158.51 162.14 146.91   C 175.90 133.22 199.10 150.90 191.17 168.11   Q 188.03 174.92 181.19 177.56   C 174.06 180.31 161.13 178.99 152.53 179.00   A 0.34 0.34 0.0 0 1 152.34 178.37   L 160.30 173.10   Q 160.76 172.79 160.44 172.35   Z   M 178.62 165.00   A 0.45 0.45 0.0 0 1 179.04 165.29   L 180.71 169.72   A 0.45 0.45 0.0 0 0 181.13 170.01   L 186.04 169.99   A 0.45 0.45 0.0 0 0 186.45 169.36   L 176.63 146.73   A 0.45 0.45 0.0 0 0 176.24 146.46   L 172.56 146.28   A 0.45 0.45 0.0 0 0 172.13 146.55   L 162.30 169.37   A 0.45 0.45 0.0 0 0 162.71 170.00   L 167.51 170.00   A 0.45 0.45 0.0 0 0 167.94 169.70   L 169.54 165.30   A 0.45 0.45 0.0 0 1 169.97 165.00   L 178.62 165.00   Z"/>
<path fill="#000000" d="   M 178.62 165.00   L 169.97 165.00   A 0.45 0.45 0.0 0 0 169.54 165.30   L 167.94 169.70   A 0.45 0.45 0.0 0 1 167.51 170.00   L 162.71 170.00   A 0.45 0.45 0.0 0 1 162.30 169.37   L 172.13 146.55   A 0.45 0.45 0.0 0 1 172.56 146.28   L 176.24 146.46   A 0.45 0.45 0.0 0 1 176.63 146.73   L 186.45 169.36   A 0.45 0.45 0.0 0 1 186.04 169.99   L 181.13 170.01   A 0.45 0.45 0.0 0 1 180.71 169.72   L 179.04 165.29   A 0.45 0.45 0.0 0 0 178.62 165.00   Z   M 171.63 160.03   A 0.39 0.39 0.0 0 0 171.99 160.57   L 176.56 160.60   A 0.39 0.39 0.0 0 0 176.92 160.07   L 174.68 154.24   A 0.39 0.39 0.0 0 0 173.95 154.24   L 171.63 160.03   Z"/>
<path fill="#ffffff" d="   M 171.63 160.03   L 173.95 154.24   A 0.39 0.39 0.0 0 1 174.68 154.24   L 176.92 160.07   A 0.39 0.39 0.0 0 1 176.56 160.60   L 171.99 160.57   A 0.39 0.39 0.0 0 1 171.63 160.03   Z"/>
<path fill="#ffffff" d="   M 194.09 234.01   C 200.93 226.68 211.76 225.48 220.70 229.06   C 229.70 232.67 235.25 241.97 236.43 251.50   Q 236.49 252.00 235.99 252.00   L 219.75 252.00   A 0.66 0.65 -8.3 0 1 219.12 251.54   Q 216.78 244.05 209.77 242.57   Q 197.34 239.95 192.82 251.59   A 0.64 0.64 0.0 0 1 192.22 252.00   L 177.12 252.00   Q 176.50 252.00 176.50 251.37   L 176.50 198.00   Q 176.50 197.50 177.00 197.50   L 193.00 197.50   Q 193.50 197.50 193.50 198.00   L 193.50 233.77   A 0.34 0.34 0.0 0 0 194.09 234.01   Z"/>
<path fill="#ffffff" d="   M 241.75 241.65   L 241.75 228.89   A 0.39 0.39 0.0 0 1 242.14 228.50   L 252.36 228.50   A 0.39 0.39 0.0 0 0 252.75 228.11   L 252.75 212.39   A 0.39 0.39 0.0 0 1 253.14 212.00   L 269.36 212.00   A 0.39 0.39 0.0 0 1 269.75 212.39   L 269.75 228.11   A 0.39 0.39 0.0 0 0 270.14 228.50   L 284.61 228.50   A 0.39 0.39 0.0 0 1 285.00 228.89   L 285.00 241.67   A 0.39 0.39 0.0 0 1 284.61 242.06   L 270.14 241.97   A 0.39 0.39 0.0 0 0 269.75 242.36   L 269.75 251.61   A 0.39 0.39 0.0 0 1 269.36 252.00   L 253.14 252.00   A 0.39 0.39 0.0 0 1 252.75 251.61   L 252.75 242.36   A 0.39 0.39 0.0 0 0 252.36 241.97   L 242.14 242.04   A 0.39 0.39 0.0 0 1 241.75 241.65   Z"/>
<path fill="#ffffff" d="   M 87.24 251.35   A 0.14 0.14 0.0 0 1 87.23 251.62   Q 86.61 251.75 85.93 251.76   Q 70.73 252.03 56.20 252.03   A 1.46 1.45 84.8 0 1 54.77 250.83   C 50.09 225.36 83.84 221.23 97.53 233.98   Q 97.98 234.40 97.55 234.83   L 88.07 244.30   Q 87.64 244.73 87.22 244.29   Q 82.45 239.32 75.59 240.40   C 70.84 241.15 69.72 246.92 74.75 248.26   Q 80.52 249.80 87.24 251.35   Z"/>
<path fill="#ffffff" d="   M 289.03 228.50   L 305.98 228.50   A 0.77 0.77 0.0 0 1 306.70 228.99   L 315.44 251.31   Q 315.71 252.00 314.97 252.00   L 298.86 252.00   Q 298.22 252.00 297.97 251.41   L 288.26 229.00   A 0.65 0.61 62.6 0 1 288.49 228.20   Q 288.58 228.15 288.76 228.37   A 0.37 0.34 68.4 0 0 289.03 228.50   Z"/>
<path fill="#ffffff" d="   M 333.53 228.51   L 350.35 228.47   A 0.34 0.34 0.0 0 1 350.67 228.93   L 341.80 251.78   A 0.34 0.34 0.0 0 1 341.49 252.00   L 325.92 252.00   A 0.34 0.34 0.0 0 1 325.60 251.55   L 333.21 228.74   A 0.34 0.34 0.0 0 1 333.53 228.51   Z"/>
<rect fill="#ffffff" x="109.25" y="228.50" width="17.00" height="23.50" rx="0.26"/>
<rect fill="#ffffff" x="145.50" y="228.50" width="17.24" height="23.50" rx="0.31"/>
<path fill="#ffffff" d="   M 60.88 258.68   A 0.35 0.35 0.0 0 1 61.01 258.00   L 96.81 258.00   Q 97.38 258.00 97.76 258.42   Q 98.87 259.61 99.23 260.98   C 106.50 288.25 67.23 290.30 53.23 278.15   Q 52.85 277.82 53.19 277.45   L 62.70 266.84   Q 63.16 266.33 63.65 266.80   C 68.11 271.14 71.32 272.68 77.71 272.12   Q 82.07 271.74 83.12 268.29   Q 83.29 267.76 82.99 267.28   Q 81.17 264.41 78.53 263.91   Q 69.69 262.25 60.88 258.68   Z"/>
<path fill="#ffffff" d="   M 145.89 276.69   Q 137.69 288.03 123.38 284.51   C 110.77 281.40 109.02 269.95 109.21 258.72   A 0.74 0.74 0.0 0 1 109.95 258.00   L 125.78 258.00   Q 126.37 258.00 126.40 258.59   C 126.78 265.35 128.34 270.86 136.54 270.23   C 143.05 269.73 144.98 264.65 145.30 258.64   Q 145.33 258.00 145.97 258.00   L 162.13 258.00   Q 162.75 258.00 162.75 258.63   L 162.75 283.37   Q 162.75 284.00 162.13 284.00   L 146.75 284.00   A 0.50 0.50 0.0 0 1 146.25 283.50   L 146.25 276.81   A 0.20 0.20 0.0 0 0 145.89 276.69   Z"/>
<path fill="#ffffff" d="   M 192.25 277.30   L 192.25 283.50   Q 192.25 284.00 191.75 284.00   L 177.00 284.00   A 0.50 0.50 0.0 0 1 176.50 283.50   L 176.50 258.63   Q 176.50 258.00 177.12 258.00   L 191.76 258.00   Q 192.39 258.00 192.48 258.62   C 194.75 274.27 216.33 274.57 219.75 258.44   Q 219.84 258.00 220.29 258.00   L 236.02 258.00   A 0.82 0.81 -87.1 0 1 236.83 258.90   Q 234.56 281.30 214.33 284.78   C 205.76 286.25 198.37 283.57 192.90 277.06   Q 192.25 276.30 192.25 277.30   Z"/>
<path fill="#ffffff" d="   M 284.57 283.76   C 273.54 286.88 253.76 286.48 252.94 270.31   Q 252.64 264.44 252.73 258.52   Q 252.74 258.00 253.25 258.00   L 269.26 258.00   A 0.60 0.60 0.0 0 1 269.86 258.62   C 269.46 268.64 273.58 274.19 284.29 269.76   A 0.51 0.51 0.0 0 1 285.00 270.23   L 285.00 283.19   Q 285.00 283.64 284.57 283.76   Z"/>
<path fill="#ffffff" d="   M 321.24 264.69   L 323.25 258.53   Q 323.42 258.00 323.97 258.00   L 338.72 258.00   Q 339.33 258.00 339.11 258.57   Q 332.73 275.31 326.12 291.87   C 321.68 303.02 319.15 309.85 307.22 311.12   Q 298.33 312.07 289.90 309.45   Q 289.37 309.29 289.46 308.74   L 291.56 295.98   Q 291.66 295.36 292.25 295.58   C 303.86 299.83 308.62 295.60 312.20 284.89   A 1.47 1.45 -47.6 0 0 312.16 283.87   L 301.04 258.45   A 0.33 0.32 -11.4 0 1 301.34 258.00   L 317.48 258.00   Q 318.01 258.00 318.21 258.49   L 320.66 264.71   Q 320.98 265.51 321.24 264.69   Z"/>
</svg>