<svg id="Componente_18_6" data-name="Componente 18 – 6" xmlns="http://www.w3.org/2000/svg" width="24" height="18" viewBox="0 0 24 18">
  <path id="bars-staggered" d="M0,4A1,1,0,0,1,1,3H18a1,1,0,0,1,0,2H1A1,1,0,0,1,0,4ZM18,19H1a1,1,0,0,0,0,2H18a1,1,0,0,0,0-2Zm5-8H6a1,1,0,0,0,0,2H23a1,1,0,0,0,0-2Z" transform="translate(0 -3)" fill="#fafafa"/>
  <g id="menu-burger" transform="translate(0 -4)" opacity="0">
    <rect id="Rectángulo_7400" data-name="Rectángulo 7400" width="24" height="2" rx="1" transform="translate(0 12)" fill="#fafafa"/>
    <rect id="Rectángulo_7401" data-name="Rectángulo 7401" width="24" height="2" rx="1" transform="translate(0 4)" fill="#fafafa"/>
    <rect id="Rectángulo_7402" data-name="Rectángulo 7402" width="24" height="2" rx="1" transform="translate(0 20)" fill="#fafafa"/>
  </g>
</svg>
