<svg xmlns="http://www.w3.org/2000/svg" width="500" height="500" style="width:100%;height:100%;transform:translate3d(0,0,0);content-visibility:visible" viewBox="0 0 500 500"><defs><filter id="a" width="100%" height="100%" x="0%" y="0%" filterUnits="objectBoundingBox"><feComponentTransfer in="SourceGraphic"><feFuncA tableValues="1.0 0.0" type="table"/></feComponentTransfer></filter><filter id="c" width="100%" height="100%" x="0%" y="0%" filterUnits="objectBoundingBox"><feComponentTransfer in="SourceGraphic"><feFuncA tableValues="1.0 0.0" type="table"/></feComponentTransfer></filter><mask id="g" mask-type="alpha"><g filter="url(#a)"><path fill="#fff" d="M0 0h500v500H0z" opacity="0"/><use xmlns:ns1="http://www.w3.org/1999/xlink" ns1:href="#b"/></g></mask><mask id="f" mask-type="alpha"><g filter="url(#c)"><path fill="#fff" d="M0 0h500v500H0z" opacity="0"/><use xmlns:ns2="http://www.w3.org/1999/xlink" ns2:href="#d"/></g></mask><g id="b" style="display:block"><path fill="#281F20" d="M253.125 189.426c-16.23 0-31.52 1.721-44.928 4.759-30.452 6.9-51.197 20.597-51.197 36.366 0 22.713 43.037 41.125 96.125 41.125s96.125-18.412 96.125-41.125c0-15.963-21.259-29.803-52.326-36.618-13.135-2.881-28.023-4.507-43.799-4.507z"/><path fill-opacity="0" stroke="#D00" stroke-width=".7" d="M3.625-33.324c-16.23 0-31.52 1.721-44.928 4.759C-71.755-21.665-92.5-7.968-92.5 7.801c0 22.713 43.037 41.125 96.125 41.125S99.75 30.514 99.75 7.801c0-15.963-21.259-29.803-52.326-36.618-13.135-2.881-28.023-4.507-43.799-4.507z" style="mix-blend-mode:soft-light" transform="translate(249.5 222.75)"/></g><g id="d" style="display:block"><path fill="red" d="M253 79c-28.17 0-51 22.83-51 51s22.83 51 51 51 51-22.83 51-51-22.83-51-51-51zm0-65.5c-4.42 0-8 3.58-8 8s3.58 8 8 8 8-3.58 8-8-3.58-8-8-8z"/><path fill-opacity="0" stroke="#281F20" stroke-width="0" d="M7-69.5c-28.167 0-51 22.833-51 51s22.833 51 51 51 51-22.833 51-51-22.833-51-51-51zM7-135a8 8 0 1 0 0 16 8 8 0 0 0 0-16z" style="mix-blend-mode:soft-light" transform="translate(246 148.5)"/></g><clipPath id="e"><path d="M0 0h500v500H0z"/></clipPath></defs><g clip-path="url(#e)"><g mask="url(#f)" style="display:block"><path fill="none" stroke="#281F20" stroke-linecap="round" stroke-linejoin="round" stroke-width="12" d="M289.684 376.848v25.264c0 7.94 6.448 14.388 14.41 14.388h22.74v-37.839c9.982-5.324 19.058-12.104 26.986-20.032 15.443-15.443 26.503-35.246 31.161-57.39h5.071c10.624 0 19.253-8.628 19.253-19.252v-18.954c0-10.624-8.629-19.253-19.253-19.253h-7.618c-8.307-27.192-26.457-50.093-50.299-64.572 0 0-1.492-31.826 21.822-50.023-26.687-2.685-54.291.963-69.941 33.318l-46.995.115c-31.712 0-60.418 12.85-81.185 33.617-20.79 20.79-33.64 49.496-33.64 81.208 0 41.947 22.488 78.639 56.082 98.671v25.998c0 7.94 6.448 14.388 14.41 14.388h22.74v-39.652m0 13.355c6.999 1.354 14.204 2.042 21.593 2.042h35.613c5.806 0 11.497-.436 17.05-1.262M126.158 243.926h-18.931s-25.646-.866-25.646-27.574c0-23.961 33.256-23.108 33.256-2.235 0 17.399-22.862 16.946-22.862 16.946H67.344"/></g><g fill="none" mask="url(#g)" style="display:block"><path stroke="#D00" stroke-width="12" d="M7-69.5c-28.167 0-51 22.833-51 51s22.833 51 51 51 51-22.833 51-51-22.833-51-51-51z" style="mix-blend-mode:soft-light" transform="translate(246 148.5)"/><path d="M7-135a8 8 0 1 0 0 16 8 8 0 0 0 0-16z" style="mix-blend-mode:soft-light" transform="translate(246 148.5)"/></g><g style="display:block"><path fill="none" stroke="#D00" stroke-linecap="round" stroke-linejoin="round" stroke-width="12.6" d="M217.327 192.994s7.086-3.506 34.586-3.5c27.5.006 37.033 3.5 37.033 3.5"/><path fill="#281F20" d="M326.75 210.75c-7.525 0-13.625 6.1-13.625 13.625S319.225 238 326.75 238s13.625-6.1 13.625-13.625-6.1-13.625-13.625-13.625z"/></g><path style="display:none"/></g></svg>