<svg xmlns="http://www.w3.org/2000/svg" fill="none" viewBox="0 0 24 24" id="dialog"><path fill="url(#paint0_linear_2461_19399)" fill-rule="evenodd" d="M14.3755 6.42105C13.0878 5.67612 11.5925 5.25 10 5.25C5.16751 5.25 1.25 9.16751 1.25 14C1.25 15.3984 1.57858 16.7221 2.16343 17.8964C2.23515 18.0403 2.24607 18.1786 2.21718 18.2866L1.74069 20.0675C1.38468 21.398 2.60196 22.6153 3.93253 22.2593L5.71336 21.7828C5.82135 21.7539 5.95967 21.7649 6.10364 21.8366C7.27785 22.4214 8.60163 22.75 10 22.75C14.8325 22.75 18.75 18.8325 18.75 14C18.75 12.4075 18.3239 10.9122 17.5789 9.62446C17.3715 9.26591 16.9127 9.14339 16.5542 9.3508C16.1957 9.5582 16.0731 10.017 16.2805 10.3755C16.897 11.4412 17.25 12.6782 17.25 14C17.25 18.0041 14.0041 21.25 10 21.25C8.83888 21.25 7.74353 20.9776 6.7724 20.4939C6.34626 20.2816 5.83294 20.1981 5.32565 20.3338L3.54482 20.8103C3.32926 20.868 3.13204 20.6707 3.18972 20.4552L3.66621 18.6743C3.80194 18.1671 3.71835 17.6537 3.5061 17.2276C3.0224 16.2565 2.75 15.1611 2.75 14C2.75 9.99594 5.99594 6.75 10 6.75C11.3218 6.75 12.5588 7.10304 13.6245 7.71946C13.983 7.92687 14.4418 7.80435 14.6492 7.4458C14.8566 7.08726 14.7341 6.62846 14.3755 6.42105Z" clip-rule="evenodd"></path><path fill="url(#paint1_linear_2461_19399)" fill-rule="evenodd" d="M8.80799 5.70642C9.90115 3.09051 12.4848 1.25 15.5 1.25C16.9362 1.25 18.277 1.66838 19.4044 2.39018C19.7532 2.61352 19.855 3.07737 19.6316 3.42621C19.4083 3.77505 18.9445 3.8768 18.5956 3.65346C17.7024 3.08161 16.6411 2.75 15.5 2.75C13.1107 2.75 11.0601 4.20747 10.192 6.28478C10.0323 6.66697 9.593 6.84732 9.21082 6.68761C8.82863 6.5279 8.64828 6.0886 8.80799 5.70642ZM20.5996 4.40016C20.9498 4.17901 21.413 4.28364 21.6342 4.63388C22.341 5.75333 22.75 7.08005 22.75 8.5C22.75 9.57209 22.5168 10.5918 22.0977 11.5093C21.9883 11.7488 21.967 11.975 22.0156 12.1568L22.143 12.6328C22.5507 14.1566 21.1566 15.5507 19.6328 15.143L19.1568 15.0156C18.975 14.967 18.7488 14.9883 18.5093 15.0977C18.4364 15.131 18.3629 15.1631 18.2887 15.1941C17.9064 15.3535 17.4672 15.1728 17.3078 14.7905C17.1484 14.4082 17.329 13.969 17.7113 13.8096C17.7701 13.7851 17.8284 13.7597 17.8861 13.7333C18.3708 13.5119 18.9571 13.4095 19.5445 13.5666L20.0205 13.694C20.4293 13.8034 20.8034 13.4293 20.694 13.0205L20.5666 12.5445C20.4095 11.9571 20.5119 11.3708 20.7333 10.8861C21.0649 10.1602 21.25 9.35275 21.25 8.5C21.25 7.37178 20.9258 6.32157 20.3658 5.43475C20.1447 5.08452 20.2493 4.62131 20.5996 4.40016Z" clip-rule="evenodd"></path><path fill="url(#paint2_linear_2461_19399)" fill-rule="evenodd" d="M5.51828 14C5.51828 13.4477 5.96599 13 6.51828 13H6.52728C7.07956 13 7.52728 13.4477 7.52728 14C7.52728 14.5523 7.07956 15 6.52728 15H6.51828C5.96599 15 5.51828 14.5523 5.51828 14ZM9.009 14C9.009 13.4477 9.45671 13 10.009 13H10.018C10.5703 13 11.018 13.4477 11.018 14C11.018 14.5523 10.5703 15 10.018 15H10.009C9.45671 15 9.009 14.5523 9.009 14ZM12.5 14C12.5 13.4477 12.9477 13 13.5 13H13.509C14.0613 13 14.509 13.4477 14.509 14C14.509 14.5523 14.0613 15 13.509 15H13.5C12.9477 15 12.5 14.5523 12.5 14Z" clip-rule="evenodd"></path><defs><linearGradient id="paint0_linear_2461_19399" x1="12" x2="12" y1="1.25" y2="22.75" gradientUnits="userSpaceOnUse"><stop stop-color="#747474" class="stopColor854d9c svgShape"></stop><stop offset="1" stop-color="#ffffff" class="stopColorcd4ed3 svgShape"></stop></linearGradient><linearGradient id="paint1_linear_2461_19399" x1="12" x2="12" y1="1.25" y2="22.75" gradientUnits="userSpaceOnUse"><stop stop-color="#747474" class="stopColor854d9c svgShape"></stop><stop offset="1" stop-color="#ffffff" class="stopColorcd4ed3 svgShape"></stop></linearGradient><linearGradient id="paint2_linear_2461_19399" x1="12" x2="12" y1="1.25" y2="22.75" gradientUnits="userSpaceOnUse"><stop stop-color="#747474" class="stopColor854d9c svgShape"></stop><stop offset="1" stop-color="#ffffff" class="stopColorcd4ed3 svgShape"></stop></linearGradient></defs></svg>