<svg version="1.2" xmlns="http://www.w3.org/2000/svg" viewBox="0 0 300 150" width="300" height="150"><style>.a{fill:#f00}</style><path class="a" d="m10.2 42.5v-11.2h60.3l-11.1-17 9.9-7q8.8 10.5 15.3 24h56.8v11.2h-22.8q-4.7 22.2-15.3 38.6-9.9 16.4-17 20.5 21.1 15.9 55.7 28.2l-7 12.8q-32.8-11.1-59.2-32.2-24.6 18.2-60.9 31.7l-8.2-11.2q35.1-12.3 59.1-29.3-24-23.4-34-59.1zm95.6 0h-61q10 31.6 31.7 50.9 21.6-18.7 29.3-50.9zm86.7-35.8l11.7 3.5-15.2 33.4v97.9h-11.8v-79.1l-14.6 17.6-5.9-11.8q25.2-29.3 35.8-61.5zm33.4 61.5v-58.6h12.3v49.8q22.2-16.4 39.8-38l8.8 7q-21.1 27.5-48.6 46.3v45.7q0 4.1 1.7 5.8 2.4 1.2 12.9 1.2 16.4 0 17-1.2 6.5 0 8.2-4.6 2.4-4.7 3-22.9l12.3 5.3q-2.4 25.2-7.1 30.4-4.7 4.7-39.2 4.7-13.5 0-17.6-2.9-3.5-3.5-3.5-11.1v-42.8l-15.3 8.2-5.8-10z"/></svg>