<svg xmlns="http://www.w3.org/2000/svg" version="1.2" viewBox="14.74 19 765.26 597"><style>.a{fill:#d00;stroke:#fff;stroke-miterlimit:100;stroke-width:20}.b{fill:#fff}</style><path class="a" d="m375 492c0 0-339-27.9-350-255-1-1.1-13-201.9 347-208 0 0.9 399 5 398 300-5 1.9-24 141.1-291 167-3-0.1 5 96.1 20 110 2-0.1-86-26.9-124-114z"/><path class="b" d="m320.5 271c-13.6 0-22.3-8.9-22.8-23.6-0.4-14.5-0.3-28.6 0-40.1 0.5-14.7 9.2-23.3 22.8-23.3 13.7 0 22.4 8.6 22.8 23.3 0.3 11.5 0.5 25.6 0 40.1-0.4 14.7-9.1 23.6-22.8 23.6zm0 11.3c21.2-0.1 35.4-13.7 36.3-34.7 0.6-13.8 0.6-27.6 0-40.7-0.9-20.8-15-34.1-36.3-34.1-21.1 0-35.4 13.3-36.3 34.1-0.6 13.1-0.6 26.9 0 40.7 0.9 21 15.2 34.7 36.3 34.7zm79.8-11.3c-7 0-9.7-2.3-9.7-9.8v-93.7l-12.8 5.3v93c0 15 12.5 17.2 22.5 14.2zm74.4 0c-6.4 0-9.7-0.7-9.7-8.2v-32c0-17.4-9-25.8-24.2-25.8-14.5 0-27.1 9.2-25.5 24.2l11.3-0.9c0-7.9 4.9-12.8 13.5-12.8 9.3 0 12.1 5.9 12.1 16.1v7.2c0.3-0.2-15 3.3-24.3 6-11.2 3.3-15 6.5-15 16.6 0 12.9 9.3 20.9 20.6 20.9 9.9 0 15.9-4.5 19.9-11.3h0.5c2.4 13.4 17.7 10.8 20.8 9zm-41.7-19.8c6.5-2.1 19.2-5.1 19.2-5.1v9.6c0 9.3-5.5 16.8-14.2 16.8-7.2 0-12.3-4.6-12.3-12.6 0-4.5 1.5-6.7 7.3-8.7zm15.8-76.2l-16.5 21.8h11.7l19.8-21.8z"/></svg>