<svg version="1.2" xmlns="http://www.w3.org/2000/svg" viewBox="0 0 960 150" width="960" height="150"><style>.a{fill:#fff}</style><path class="a" d="m10.9 115q0-0.8 0-2 0.2-1.2 0.2-1.3 0-0.3 0.4-1.2 0.6-1 0.9-1.5 0.5-0.5 1.4-1.5 1-1 1.4-1.2 0.1-0.1 1-0.1 1-0.2 1.8-0.2 0.4 0 1.3 0.2 1.1 0 1.3 0.1 0.2 0.2 1.1 1 1.1 0.8 2.1 1.7 1.3 0.9 2.1 1.8 1.1 0.7 1.4 0.9 0.3 0.3 1.3 0.8 1.1 0.4 1.4 0.5h1.5q1.2 0 2.4 0.2 1.3 0 2.5 0h1.7 2.1q1.3 0 2.7 0 1.3-0.2 2.2-0.2h1.1q0.3 0 1.8-0.4 1.5-0.6 2.2-0.9 0.5-0.2 1.5-0.6 1.2-0.6 2.6-1.2 1.3-0.7 2.6-1.4 1.1-0.5 1.5-0.8 0.4-0.4 1.9-1.4 1.6-1.1 2.1-1.3 0.3-0.3 1.3-1.3 1.1-1 1.4-1.5 0.6-0.5 1.3-1.6 0.9-1 1.8-2.1 0.9-1 1.5-1.8 0.6-0.9 0.8-1.2 0.3-0.3 0.7-1.8 0.5-1.5 0.6-2.2 0-0.2 0-0.8 0.2-0.6 0.2-0.9 0-0.3-0.2-0.6 0-0.4 0-0.4l-8.1-8.1q0 0-0.4 0-0.3-0.2-0.6-0.2-0.3 0-0.9 0.2-0.6 0-0.8 0-0.3 0-2.1 0.7-1.6 0.6-1.9 0.6h-2.4-3l-14.9-1.3h-0.7-0.6l-2.7 1.3q-0.5 0.2-1.2 0.5-0.8 0.1-1.7 0.4-0.9 0.2-1.6 0.3-0.8 0.1-0.9 0.1-0.2 0-1.8 0.2-1.5 0-2.3 0-0.7 0-2.4 0-1.5-0.2-1.6-0.2-0.3 0-1.1-0.1-0.7-0.1-1.6-0.3-0.9-0.3-1.8-0.4-0.8-0.3-0.9-0.5-0.3 0-1.8-1-1.5-1.1-2.3-1.7-1-0.3-1.3-1.3-0.6-0.5-1.7-2.2-1-1.6-1-1.9-0.3-0.4-0.9-1.9-0.5-1.7-0.5-2.1v-0.9q0-0.8-0.1-1.8 0-1.1 0-2.3v-1.8q0-0.7 0-1.8 0-1 0-2.1 0.1-1 0.1-1.8 0-0.9 0-1 0-0.4 0.5-1.4 0.6-1 0.9-1.3 0.3-0.3 1.3-0.7 1.2-0.4 1.4-0.7 0.1-0.3 0.3-1.2 0.1-1.1 0.3-2.1 0.3-1.2 0.4-2.1 0.2-1 0.3-1.4 0.2-0.1 0.6-0.8 0.6-0.8 1.2-1.7 0.8-0.9 1.4-1.6 0.6-0.9 0.9-1.2 0.4-0.7 1.3-1.5 1.1-1.1 2.1-2.2 1.2-1 2.1-1.9 0.9-0.9 1.2-1.2 0.2-0.1 1.1-0.7 1-0.8 2.4-1.7 1.3-0.9 2.5-1.6 1.4-0.9 2.1-1.4 0.5-0.3 1.4-0.7 1-0.6 1.3-0.6h0.6 1.4 1.3 0.8q0.1-0.2 0.7-0.8 0.6-0.6 1.3-1.2 0.7-0.7 1.1-1.3 0.6-0.6 0.9-0.8 0.6-0.1 2.3-0.7 1.8-0.6 3.7-1.2 2-0.8 3.6-1.4 1.9-0.6 2.6-0.7 0.3 0 1.9 0 1.9-0.2 2.7-0.2 0.6 0 2.4 0.2 1.8 0 2.4 0-0.1 0.6 0.3 2.1 0.6 1.5 1.1 1.9 0.1 0.1 0.7 0.4 0.6 0.2 1.2 0.5 0.8 0.2 1.4 0.3 0.6 0.2 0.7 0.2 0.2 0.1 0.6 0.7 0.6 0.6 0.8 0.6h1.2 2.1 2.1 1.3q0 0 0.8 0.4 0.7 0.3 1.7 0.8 0.8 0.5 1.7 0.9 0.9 0.5 1.3 0.6 0.2 0.3 0.7 0.7 0.6 0.5 0.6 0.7 0 0.3-0.6 1.8-0.5 1.5-0.7 2.2-0.4 0.6-0.8 1.5-0.3 0.8-0.7 1.6-0.4 0.8-0.8 1.5-0.3 0.7-0.5 0.8-0.2 0.3-1.3 0.7-0.9 0.5-1.4 0.7-0.1 0-1.3 0.1-1.2 0-2 0-0.7 0-1.9 0-1.2-0.1-1.5-0.1-0.5 0-1.6-0.2-1.1-0.1-2.5-0.3-1.2-0.3-2.4-0.5-1.2-0.2-1.6-0.4-0.3 0-2.1-0.6-1.7-0.7-2-0.7-0.1 0-1.2 0.5-1 0.5-1.5 0.8l-4 2.7q-0.3 0.3-1.8 1-1.4 0.8-3 1.7-1.7 0.9-3 1.7-1.4 0.7-1.7 1-1 0.8-2.7 2.3-1.6 1.5-3.1 3-1.5 1.5-2.6 2.8-1 1.2-1 1.4v2.1h31q0.3 0 1.8 0.7 1.7 0.8 2.3 1.2 0.1 0.1 0.7 0.8 0.6 0.5 1.2 1.3 0.8 0.6 1.2 1.2 0.6 0.6 0.9 0.8 0 0 0.8 0.1 0.7 0 1.2 0 0.3 0 1 0 0.9-0.1 1.1-0.1 0.3 0 1.3-0.6 1.1-0.8 1.4-0.8 0.1 0 1.2 0 1-0.1 1.8-0.1 0.3 0 1.2 0.1 1 0 1.2 0 0.2 0 1 0.6 0.9 0.5 2 1.2 1 0.6 2.1 1.4 1.1 0.6 1.6 0.9l1.4 1.3q0.3 0.3 0.4 1.8 0.2 1.5 0.5 2.7 0.2 0.9 0.7 1.3 0.8 0.4 1.1 0.9 0.1 0.4 0.3 1.4 0.3 0.9 0.4 2.1 0.3 1 0.5 2.1 0.2 1 0.2 1.2l1.3 2.7v1.2 1.5q0 0.3-0.2 1.3-0.1 1-0.4 2.1-0.2 1.1-0.5 2.2-0.1 0.8-0.2 1.2l-1.4 4q0 0.1-0.1 1-0.2 0.8-0.5 1.9-0.2 0.9-0.5 1.6-0.1 0.8-0.3 0.9-0.2 0.4-0.9 1.6-0.6 1.1-1.2 2.5-0.6 1.3-1.1 2.5-0.7 1-0.8 1.5-0.2 0.1-0.6 0.9-0.5 0.6-1.2 1.5-0.6 0.9-1.2 1.8-0.6 0.8-1.1 1.2-0.1 0.1-0.6 0.7-0.4 0.5-0.7 0.7-0.5 0.4-1.5 1.3-0.9 0.7-2.1 1.7-1.1 0.7-2.1 1.5-0.9 0.7-1.1 0.8-0.5 0.5-2 1.5-1.5 0.9-2 1.2-0.9 0.5-2.5 1.4-1.7 0.8-3.3 1.7-1.7 0.8-3.2 1.6-1.4 0.6-1.8 0.7-0.3 0.2-1.7 0.7-1.1 0.2-2.6 0.7-1.5 0.4-3 0.9-1.5 0.3-2.2 0.5-0.6 0.1-1.8 0.4-1.2 0.1-2.5 0.5-1.2 0.1-2.3 0.2-1 0.2-1.5 0.2h-0.9-4-1.8-1.8-4-1q-0.4 0-2.2-0.3-1.7-0.3-3.2-0.6-0.7-0.3-2.1-0.6-1.2-0.4-1.9-1.2-0.3-0.1-1.2-0.9-0.8-0.7-1.6-1.7-1-0.9-1.7-1.6-0.8-0.9-0.9-1.2-0.8-0.7-1.2-1.9-0.3-1.4-0.6-2.2-0.3-1.3-0.6-3-0.3-1.8-0.3-2.3 0-0.2-0.2-1.4 0-1.4 0-2.1zm34 15.6v2.7h1.6q0-0.5-0.3-1.2-0.3-0.9-1.3-1.5zm66.1 0l-6.8-6.8v-0.6-0.7q0.2-0.3 0.8-1.3 0.6-1.1 0.6-1.4 0-0.1 0-1.1 0.1-1 0.1-1.5 0-0.5-0.1-1.6 0-1.1 0-1.2 0-0.3-0.2-1.2-0.1-1-0.4-2.1-0.2-1.2-0.5-2.1-0.1-1-0.3-1.3-0.1 0.1-1.3 0.1-1.2 0-1.4-0.1-1.2-0.5-2.2-1-1.1-0.4-0.9-1.5-0.3-1.3-0.6-3.1-0.3-1.8-0.3-2.5v-1.1q0-1.2-0.2-2.4 0-1.4 0-2.5v-2-1.8q0-1.2 0-2.2 0.2-1.1 0.2-2v-0.9q0-0.3 0.4-2.4 0.5-2.1 1.1-4.6 0.7-2.6 1.3-5.1 0.8-2.7 1.2-4.1l1.4-2.7 2.7-4.1q0.1-0.2 0.6-1 0.4-0.9 0.9-1.8 0.4-0.9 0.7-1.5 0.5-0.7 0.5-1 0.1-0.4 0-1.4-0.2-1 0-1.3 0.1-0.2 0.7-1.4 0.8-1.2 1.5-2.7 0.9-1.5 1.7-3 0.9-1.5 1.5-2.4 3.1-5.2 7-9.6 3.9-4.4 9.2-7.9 0.3-0.2 1.2-0.7 0.9-0.5 1.9-1.1 1.3-0.8 2.1-1.4 1.1-0.6 1.5-0.9l5.4-2.7 0.6-0.2q0.3 0 0.5 0.2 0.3 0 0.3 0 0.3 0.3 0.6 1.3 0.4 1.1 0.8 1.4l0.5 0.1q0.2 0 0.5 0 0.3-0.1 0.3-0.1 0.2-0.1 0.4-0.7 0.5-0.7 0.9-1.2 0.5-0.8 0.8-1.4 0.4-0.6 0.6-0.7 0.3-0.4 1.3-0.8 1.1-0.6 1.4-0.6 0.1 0 1.8 0 1.8-0.1 2.7-0.1 0.9 0 2.7 0.1 1.9 0 2.2 0 0.6 0 2.1 0.2 1.5 0.1 3.2 0.4 1.8 0.2 3.3 0.4 1.6 0.2 2.3 0.4 0.2 0.1 1.7 0.6 1.5 0.4 2.3 0.7 1.2 0.5 2.2 1.1 1.1 0.4 1.8 1.6 0.2 0.3 0.6 1.5 0.5 1.1 0.8 1.2 0.1 0.3 1.3 0.9 1.3 0.5 2.6 1.2 1.5 0.6 2.7 1.2 1.2 0.6 1.5 0.8 0.5 0.6 2.1 2.1 1.6 1.3 1.9 1.9 0.5 0.8 1.4 2.4 0.9 1.7 1.8 3.4 0.3 1 0.8 1.7 0.4 0.8 0.7 1.5 0.8 1.3 0.8 1.8 0.1 0.5 0.1 2.1 0 1.7-0.1 3.4 0 1.7 0 3.3v2q0 0.3 0.4 0.9 0.4 0.5 0.9 1.2 0.4 0.6 0.9 1.2 0.4 0.6 0.4 0.7 0 0.2 0 2 0.2 1.7 0.2 2.5 0 1-0.2 2.9 0 1.8 0 2.1 0 0.3-0.7 1.4-0.6 1-0.6 1.3 0 0.2-0.2 0.9 0 0.7 0 1.2 0 0.3 0 1 0.2 0.8 0.2 0.9 0 0.4 0.6 1.4 0.6 1.1 0.7 1.4 0.4 0.7 0.8 2.3 0.6 1.5 0.6 1.7 0 0.2-0.6 1.8-0.4 1.5-0.8 2.3-1.1 3.1-2.5 6.1-1.2 3-2.9 6-0.2 0.6-1.3 2.3-1.1 1.5-1.4 1.7l-4 4.1-1.4 2.7-8.1 8.1q-0.3 0.3-1 0.9-0.8 0.5-1.7 1.2-0.7 0.6-1.5 1.2-0.7 0.4-1.2 0.8-0.4 0.3-1.3 0.8-0.9 0.7-2.1 1.4-1.1 0.6-2 1.2-0.9 0.4-1.3 0.6l-10.8 5.4q-0.5 0.3-1.5 0.7-1.1 0.5-2.3 1-1 0.4-1.9 0.7-0.9 0.3-1.1 0.3-0.7 0.3-2.7 0.8-1.9 0.4-4.1 0.8-2.2 0.5-4.1 0.8-1.9 0.3-2.6 0.3h-5.5-1.5-3.2-0.6q-0.3 0-1.3-0.3-0.9-0.4-2.1-0.9-1.1-0.5-2.1-0.9-1.1-0.5-1.2-0.6l-5.4-1.4q-0.5-0.1-1.5-0.6-0.9-0.4-1.2-0.7zm27 1.3h-2.7l2.7 1.4zm-23.1-43.5q0 0.8 0 2.4 0.1 1.7 0.1 2 0 0.6 0.5 2.7 0.6 1.9 0.9 2.7 0.1 0.3 0.4 1.2 0.5 0.7 0.9 1.6 0.5 0.9 0.8 1.7 0.4 0.7 0.6 0.9 0.1 0.3 1.2 1.3 1 0.9 2.1 2.1 1.2 1.1 2.2 2.1 1.1 0.9 1.2 1.2 0.3 0.8 0.8 2.9 0.6 1.9 0.6 2.7 0.3 0 0 0-0.2-0.2 0-0.2l4.1-1.3 6.7-2.7 8.1-2.7q0.7-0.2 2.2-0.9 1.5-0.9 3.2-1.8 1.8-0.9 3.3-1.7 1.5-0.7 2.1-1 0.1-0.2 0.7-0.6 0.8-0.5 1.7-1.1 0.9-0.7 1.6-1.3 0.9-0.6 1.4-1.1 0.5-0.3 1.5-1.2 1.2-0.9 2.4-1.9 1.3-1.2 2.6-2.1 1.1-1.1 1.6-1.5l1.4-1.4q0.4-0.6 1.3-2.1 1-1.5 2.1-3.1 1.1-1.8 1.9-3.3 1.1-1.7 1.4-2.3 0.3-0.7 1.3-2.7 1.1-2.1 1.4-2.7 0.1-0.6 0.6-1.8 0.5-1.3 0.9-2.5 0.4-1.4 0.7-2.4 0.5-1.1 0.5-1.4v-0.7q0-0.8 0-1.7 0.1-0.9 0.1-1.8v-1.6-1.5q0-1.2-0.1-2.1 0-1.1 0-1.8v-0.9q0-0.2-0.6-1.7-0.5-1.6-0.8-2.4-0.2-0.4-0.7-1.5-0.5-1-0.6-1.2-0.3-0.3-1.4-0.7-0.9-0.5-1.3-0.6h-1.1q-0.7 0-1.8 0.1-0.8 0-1.6 0-0.7 0-0.9-0.1-0.3-0.2-1.3-0.9-1-0.9-2.2-1.8-2.1-1.8-2.8-2.4-0.6-0.6-1.8-0.3-1.2 0.1-1.4 0-0.1-0.2-1.3-0.6-1.5-0.8-3.8-1.8-2.2-1.1-3-1.7-0.1-0.1-0.7-0.6-0.6-0.4-1.4-0.9-0.6-0.4-1.1-0.7-0.7-0.5-0.8-0.5-0.3 0-1.4 1.1-0.8 0.9-1.3 1.6-0.3 0.3-0.9 2.1-0.5 1.7-0.5 2l-1.3 1.3-4.1 2.7q-1 0.8-3.6 2.9-2.4 2.1-5.2 4.5-2.7 2.4-5.3 4.5-2.4 2.1-3.4 3-0.2 0.6-0.6 2.1-0.5 1.5-0.8 1.9l-5.4 12.2q-0.3 0.6-0.7 1.9-0.5 1.2-0.9 2.6-0.5 1.2-0.8 2.4-0.3 1-0.3 1.2 0 0.1-0.1 1.6 0 1.4 0 2.1zm33.9 24.6h-1.4l1.4 1.4zm56.7 0v-1.4-1.3q0-0.3 0.6-2 0.7-1.8 0.7-2.1 0-0.1 0-1 0.2-1.1 0.2-1.7 0-0.4-0.2-1.5 0-1 0-1.2 0-0.3-0.6-1.3-0.6-1.1-0.7-1.4 0 0-0.2-0.4 0-0.6 0-0.9 0-1.7 0.8-2.4 0.7-0.8 0.7-2.3v-0.7q-0.1-0.3-0.7-1.4-0.6-1-0.6-1.3 0-0.2-0.2-0.8 0-0.7 0-1.2 0-0.3 0-1 0.2-0.9 0.2-1.1 0-0.4 0.1-1.5 0.2-1 0.3-2.1 0.3-1 0.5-1.9 0.3-0.9 0.4-1.2 0.2-0.2 0.8-1.4 0.6-1.2 1.2-2.5 0.7-1.5 1.3-2.7 0.6-1.2 0.8-1.5 0.3-0.5 0.7-2 0.5-1.6 0.6-2.1 0-0.1 0-0.6 0.2-0.6 0.2-0.9 0-0.3-0.2-0.7 0-0.5 0-0.5 0-0.1-0.4-0.7-0.5-0.6-0.9-1.2-0.5-0.8-0.9-1.2-0.5-0.6-0.5-0.9 0-0.2-0.1-0.9 0-0.8 0-1.7 0-0.9-0.2-1.8 0-0.9 0-1.6 0-0.6 0-1.5 0.2-1.1 0.2-2 0-1.2 0-1.8 0.1-0.7 0.1-0.9 0-0.4 0.6-3.1 0.6-2.9 1.5-6.5 0.9-3.7 1.8-7.5 0.9-3.7 1.5-5.8 0.3-0.8 0.6-2.3 0.5-1.5 0.8-1.8 0.3-1 1.3-1.3h0.6 0.8q0.3 0 1.9 0.7 1.8 0.6 2.1 0.6h1.5 2.6 2.5 1.5q0.2 0 0.6 0.6 0.5 0.5 0.8 0.8 0.3 0.4 0.7 1.5 0.6 0.9 0.6 1.2 0 0.1 0 0.9 0.2 0.7 0.2 1 0 0.3-0.2 1.2 0 0.8 0 0.9l-1.3 5.4v1.1 1.6 1.8 0.9q0 0.3-0.8 2.1-0.6 1.7-0.6 2l-1.3 10.8q-0.2 0.4-0.5 1.6-0.1 1.1-0.4 2.3-0.2 1-0.3 1.9-0.2 0.8-0.2 0.9 0 0.3-0.4 1.1-0.5 0.7-0.9 1.6-0.5 0.9-0.9 1.8-0.5 0.8-0.5 0.9v1.1 1.6 1.8 0.9l-2.7 18.9v0.8 0.6q0 0.3 0.2 1.2 0.1 0.9 0.3 2.1 0.3 1 0.4 2.1 0.3 0.9 0.5 1.3 0.1 0.5 0.3 1.4 0.3 0.7 0.4 1.6 0.3 0.9 0.5 1.7 0.1 0.6 0.1 0.7 0.2 0.5 0.6 1.5 0.5 0.9 0.8 1.2 0.4 0.6 1.3 1.7 1.1 0.9 1.4 1 0.1 0 1.3 0.2 1.2 0 2 0 0.7 0 1.9 0 1.4-0.2 1.5-0.2 0.3-0.1 1.7-0.7 1.5-0.6 3-1.2 1.6-0.8 3-1.4 1.5-0.6 1.8-0.7 0.3 0 1.9-0.5 1.8-0.6 2.1-0.9 0.6-0.4 2.3-1.5 1.6-1.2 3.3-2.4 1.8-1.3 3.3-2.5 1.5-1.2 1.9-1.7 0.5 0.2 2 0.2 1.6 0 2.1-0.2 0.3 0 0.7-0.4 0.5-0.6 0.7-0.9l1.3-4.1 2.7-5.4q0-1.2 0-3.9 0.1-2.8 0.1-6.3 0.2-3.4 0.4-7.3 0.1-3.9 0.2-7.4 0.2-3.4 0.3-6.1 0.2-2.9 0.3-4.1 0-1.3 0.2-4.5 0.1-3.3 0.3-6.9 0.3-3.7 0.4-6.9 0.3-3.3 0.5-4.6 0.3-0.5 0.8-1.8 0.5-1.5 1.1-2.6 0.4-1 1.4-1.3 1-0.5 2.1-1.1 0.1 0 1.5 0 1.4-0.1 2.1-0.1 0.8 0 1.8 0.1 1.2 0 1.3 0 0.5 0.2 2 1.2 1.5 1.1 2.1 1.5 0.3 0.3 0.7 1.4 0.6 1 0.6 1.3v1.7q0 1.2 0 2.5 0.2 1.2 0.2 2.4v1.5 2.1q0 1.2-0.2 2.6 0 1.2 0 2.4v1q0 0.5-0.1 1.8-0.1 1.2-0.5 2.7-0.1 1.4-0.4 2.9-0.2 1.3-0.3 2.1l-1.4 4v0.8 0.6q0 0.4 0.2 2.1 0.3 1.6 0.4 3.4 0.4 1.8 0.5 3.5 0.3 1.5 0.3 1.8 0 2.1 0.1 7.2 0.3 5.1 0.5 10.9 0.3 5.9 0.5 11.1 0.2 5.1 0.2 7.2 0.2 0.3 0.3 0.8 0.2 0.4 0.3 1.3 0.7 1.5 0.8 2.1 0.1 0.5 0.3 1.8 0.3 2 0.6 4.4 0.5 2.4 0.5 3.1 0 0.3 0 2 0.1 1.6 0.1 2.4 0 0.7-0.1 2.2 0 1.4 0 1.5 0 0.3-0.7 1.4-0.4 1-0.7 1.3-0.3 0.3-1.4 0.8-0.9 0.4-1.3 0.6-0.2 0-1.2 0.1-1.1 0-1.5 0-0.6 0-1.7 0-0.9-0.1-1-0.1-0.3 0-1.8-0.5-1.5-0.6-2.2-0.9-1.3-0.4-2.3-0.9-1.1-0.6-1.8-1.8-0.3-0.3-0.8-1.2-0.3-1-0.6-1.5 0-0.1-0.1-0.7-0.2-0.6-0.4-1.2-0.2-0.8-0.5-1.4-0.2-0.6-0.3-0.7 0-0.2-0.6-0.2-0.5-0.1-0.8-0.1-1 0-1.3 0.3-0.8 0.4-2.4 1.6-1.6 1.2-3.6 2.6-2 1.2-3.8 2.4-1.6 1-2.4 1.5-0.7 0.4-2.7 1.3-1.8 0.9-4 2-2.1 1-4.1 2.1-1.8 0.9-2.7 1.3-0.6 0.3-1.9 0.8-1.2 0.4-2.6 0.9-1.2 0.4-2.4 0.7-1 0.3-1.2 0.3h-1-4.5-2-1.3-4.5-1.5q-0.3-0.1-1.4-0.6-1-0.4-1.3-0.7-0.6-0.2-1.7-0.8-1-0.6-2.1-1.2-1-0.7-1.9-1.3-0.9-0.6-1.1-0.8-1-0.3-1.3-1.3-2.4-3.8-3.6-7.8-1.1-4.1-1.8-8.4zm98.4 2.5q0-0.4 0-1.3 0.1-1.1 0.1-1.2 0-0.2 0.5-0.6 0.6-0.5 0.9-0.8 0.1-0.1 0.9-0.4 0.9-0.5 1.8-0.8 0.9-0.4 1.6-0.7 0.9-0.5 1.1-0.8 0.1-0.1 0.1-1 0.2-1.1 0.2-1.5 0-0.6-0.2-1.7 0-1-0.1-1.2-0.2-0.3-1.4-0.7-1-0.5-1.3-0.6-1.1-0.3-1.4-1.4 0.3-0.3 1.4-0.7 1-0.5 1.3-0.6 0.2 0 1.2 0 1.2-0.2 1.8-0.2 0.5 0 1.4 0.2 1 0 1 0 0 0 0.8 0.7 0.7 0.6 1.6 1.5 0.9 0.9 1.7 1.8 0.9 0.9 1.3 1.4l2.7 4q0.3 0.3 0.8 0.9 0.4 0.5 0.6 0.5h20.2q0.2 0 1.7-0.5 1.6-0.6 2.4-0.9l2.7-1.3q0.3 0 1.9-0.5 1.8-0.6 2.1-0.9 0.2-0.1 1.4-1 1.2-1.1 2.7-2.3 1.5-1.3 3-2.5 1.5-1.4 2.4-2.3 0.4-0.3 1.3-1.3 1.1-1.1 1.4-1.4 0.4-0.6 1.2-1.5 0.9-1 1.6-2.1 0.9-1 1.7-1.9 0.7-0.9 0.9-1.2 0.4-0.8 1.3-2.7 1.1-2 1.4-2.7 0-0.2 0-0.6 0.1-0.6 0.1-0.9 0-0.3-0.1-0.8 0-0.4 0-0.4-0.5-0.6-1.2-1.4-0.8-0.9-1.7-1.6-0.7-0.9-1.5-1.5-0.7-0.8-1-0.9-0.3-0.2-1.8-0.3-1.5-0.3-3.5-0.5-1.9-0.3-3.9-0.4-1.9-0.2-3-0.2-0.9 0-3.3 0-2.2-0.1-4.8-0.1-2.5 0-4.9 0.1-2.3 0-3.2 0-0.3-0.3-1.3-0.7-1.1-0.5-1.4-0.6h-0.7-0.6q-0.2 0.1-1.1 0.7-0.7 0.6-1.8 1.4-0.9 0.6-1.6 1.2-0.8 0.6-0.9 0.7-0.6 0.3-2.7 0.9-2.1 0.5-2.7 0.5-0.3 0-2.1 0.1-1.8 0-3 0-0.8 0-2.6 0-1.6-0.1-1.8-0.1-0.1 0-1-0.3-0.8-0.5-1.8-0.9-0.9-0.5-1.7-0.9-0.7-0.5-0.9-0.6 0 0-0.3 0-0.3-0.2-0.4-0.2l-0.6 0.2-2.7 2.7q0 0-0.3 0.1-0.3 0-0.5 0l-0.6-0.1q-0.7-0.3-2.7-1.2-1.9-1.1-2.7-1.5-1-0.3-1.3-1.4-0.5-0.6-1.2-1.8-0.6-1.3-1.4-2.7-0.6-1.3-1-2.2-0.5-1.1-0.5-1.4 0-0.1-0.1-1.6-0.2-1.7-0.2-2.4 0-0.8 0.2-2.3 0.1-1.6 0.1-1.8 0-0.1 0.3-0.7 0.5-0.6 0.9-1.2 0.5-0.8 0.9-1.4 0.5-0.6 0.6-0.7l2.7-5.4 2.7-4.1q0.3-0.4 1.5-1.8 1.4-1.3 2.9-2.8 1.6-1.7 3-3 1.5-1.4 2.1-1.8 0.1-0.2 1-0.9 1.1-0.8 2.1-1.7 1.2-0.9 2.1-1.6 1.1-0.8 1.5-1.2l8.1-5.4q0.6-0.5 1.7-1.1 1-0.6 2.1-1.2 1-0.7 1.8-1.2 0.9-0.4 1.2-0.6 0.1-0.1 1.3-0.6 1.4-0.6 2.9-1.2 1.5-0.7 3-1.3 1.5-0.6 2.2-0.9 4.5-1.7 9-2.3 4.5-0.6 9.3-0.6h1.5q1.2 0 2.1 0.2 0.9 0 1.7 0h0.7q0.2 0 1.7 0.6 1.6 0.4 2.4 0.7 0.4 0.3 1.3 0.8 1.1 0.4 1.4 0.6l4 4q0.3 0.3 0.8 1.4 0.6 1 0.6 1.3 0 0.2 0 2 0.1 1.8 0.1 2.8 0 0.9-0.1 2.7 0 1.8 0 2 0 0.3-0.6 1.3-0.5 1.1-0.8 1.4-0.4 0.6-1.3 1.5-0.8 0.7-1.7 1.6-0.7 0.8-1.5 1.5-0.7 0.6-0.9 0.8 0 0-0.7 0.1-0.8 0-1.2 0-0.3 0-1.2 0-0.8-0.1-0.9-0.1-0.2 0-0.6-0.5-0.5-0.6-0.8-0.9-0.1-0.1-0.6-0.9-0.3-0.9-0.7-1.8-0.5-0.9-0.9-1.6-0.3-0.9-0.5-1.1-0.3-0.3-1.3-0.7-0.9-0.5-1.4-0.6-0.1 0-1 0-0.8-0.2-1.1-0.2-0.4 0-1.2 0.2-0.7 0-0.7 0-0.3 0.1-1.2 0.7-0.8 0.6-1.7 1.4-0.9 0.6-1.6 1.2-0.8 0.6-0.9 0.7-0.3 0.2-1.4 0.6-0.9 0.3-2.1 0.8-1 0.4-2.1 0.9-1 0.3-1.2 0.4-0.3 0.2-1.2 0.6-0.7 0.3-1.6 0.8-0.9 0.4-1.7 0.9-0.7 0.3-0.9 0.4-0.4 0.3-2.1 1.4-1.5 0.9-1.9 1.3-0.6 0.3-1.8 1.2-1.1 0.9-2.1 1.8-1.1 0.9-2 1.7-0.7 0.6-0.9 0.7-0.1 0.3-0.7 1.4-0.5 0.9-0.6 1.3 0 0.3 0.1 0.8 0.2 0.3 0.2 0.4 0.3 0 1.2 0.2 0.9 0 1.2 0 0.4 0 2.7-0.2 2.2-0.3 4.6-0.4 2.6-0.3 4.8-0.5 2.3-0.3 2.7-0.3h1.7q1.6 0 3.6 0 1.9-0.1 3.9-0.1h3.3 3q2.1 0 3.9 0.1 1.9 0 3.3 0h1.6q0.3 0 2 0.3 1.6 0.3 3.1 0.6 0.8 0.2 1.7 0.5 0.4 0.1 1.9 0.6 1.7 0.4 2.1 0.7 0.5 0.3 1.7 0.9 1.2 0.6 2.4 1.2 1.3 0.6 2.4 1.2 1.2 0.6 1.6 0.8 1.1 0.3 1.4 1.3 0 0 0 0.3 0.1 0.3 0.1 0.5l-0.1 0.6q-0.2 0.1-0.6 0.6-0.5 0.3-0.9 0.7-0.5 0.5-0.9 0.9-0.3 0.3-0.3 0.5 0 0.7 0.9 2.2 1 1.5 1.8 1.8 0.3-0.4 1.2-1.3 1-1.1 1.5-1.4 0 0 0.4 0 0.6-0.1 0.9-0.1 0.3 0 0.8 0.1 0.4 0 0.6 0 0.1 0 0.6 0.6 0.4 0.5 0.7 0.8 0.3 0.3 0.8 1.3 0.4 1.1 0.6 1.4 0 0.4 0 1.6 0.1 1.1 0.1 2.4 0 1.4 0 2.6 0.2 1 0.2 1.5 0 0.7-0.2 2.2 0 1.4 0 2.6 0 1.2-0.1 2.2 0 0.9 0 1.1 0 0.3-0.3 1.2-0.3 0.7-0.8 1.8-0.4 1-0.9 2.1-0.4 1-0.7 1.6-0.2 0.2-0.6 1.1-0.5 0.7-1.2 1.9-0.6 1.1-1.2 2.1-0.6 1.1-1.1 1.7-0.1 0.3-0.6 0.9-0.3 0.4-0.7 1.2-1.2 1.6-1.4 2.1-0.1 0.3-0.9 1.2-0.9 1.2-1.9 2.5-0.9 1.2-1.2 1.5l-4.1 4.1q-0.3 0.1-1.3 0.6-1.1 0.4-1.4 0.7-0.1 0.2-0.6 0.8-0.3 0.6-0.7 1.3-0.5 0.6-0.9 1.2-0.3 0.6-0.5 0.8-0.3 0.3-1.2 1-0.7 0.6-1.8 1.5-1 0.8-2.1 1.7-1 0.7-1.6 1.2-0.3 0.3-1.5 1.2-1.2 0.7-2.6 1.6-1.3 0.9-2.5 1.7-1.1 0.7-1.5 0.9-0.3 0.1-1.1 0.6-0.7 0.3-1.6 0.7-0.8 0.5-1.5 0.9-0.8 0.3-1.2 0.5-0.5 0.3-1.5 0.7-1.1 0.5-2.3 0.9-1 0.5-1.9 0.8-0.9 0.3-1.1 0.3-0.4 0.1-1.5 0.4-0.9 0.2-2.1 0.5-1 0.1-1.9 0.3-0.9 0.1-1.2 0.1h-1.2-5-1.9-2-4-0.8q-0.1 0-1.5-0.4-1.3-0.5-3.1-1.1-1.7-0.7-3.5-1.3-1.8-0.8-2.7-1.2-0.4-0.2-1.3-0.6-0.8-0.5-1.7-0.9-0.9-0.5-1.6-0.8-0.8-0.4-0.8-0.4-0.4-0.5-1.5-1.4-0.9-0.9-2.1-1.9-1-1.2-2.1-2.1-0.9-0.9-1-1.4-0.3-0.3-0.8-1.8-0.4-1.5-0.6-2.2 0-0.2-0.1-1.2 0-1.1 0-1.7zm98.5-31.8q0-0.4 0-1.2 0.2-0.7 0.2-0.9 0.1-0.7 0.6-2.2 0.4-1.5 0.7-1.8 0.2-0.2 0.6-0.8 0.6-0.7 1.2-1.3 0.8-0.8 1.4-1.2 0.6-0.6 0.9-0.8 0.1 0 0.6 0 0.4-0.1 0.7-0.1 0.3 0 0.8 0.1 0.4 0 0.6 0l4 4.1q0.3 0.3 1.2 0.7 1.1 0.5 1.5 0.6h0.6 0.8q1-0.3 1.3-1.3 0.2-0.3 0-1.4 0-1 0-1.3 0.9-3.2 4.1-4.1 0.9-0.1 3-0.6 2.1-0.4 4.2-0.9 2.2-0.4 4-0.7 1.8-0.5 2.3-0.5h1q0.9 0 2.1 0 1.2-0.1 2.4-0.1h1.8 1.5q1.2 0 2.3 0.1 1 0 2.2 0h1.5q0.3 0.2 1.4 0.6 1 0.5 1.3 0.8 0.3 0.3 0.8 0.7 0.6 0.5 0.6 0.6 0.1 0.3 0.3 1.4 0.3 1 0.4 2.4 0.3 1.3 0.5 2.5 0.1 1.2 0.1 1.8 0 0.2 0 1.1 0.2 0.7 0.2 1 0 0.5-0.2 1.2 0 0.8 0 0.8 0 0.1-0.6 0.6-0.4 0.4-0.7 0.7-0.3 0.3-1.4 0.8-1 0.4-1.3 0.6-1.5 0.4-5.4 1.2-3.8 0.7-8.1 1.6-4.4 0.9-8.3 1.7-3.7 0.7-5.2 0.9-0.2 0-0.9 0.1-0.8 0-1.2 0-0.3 0-1.1 0-0.7-0.1-0.9-0.1l-4-1.4h-0.8-0.6q-0.7 0.3-2.2 0.8-1.5 0.3-1.8 0.6l-4.1 2.7h-0.7-0.6q-0.3-0.2-0.9-0.6-0.6-0.6-1.4-1.2-0.6-0.8-1.2-1.4-0.4-0.6-0.6-0.9-0.3-0.3-0.7-1.8-0.5-1.5-0.6-2.2 0-0.2-0.2-0.9 0-0.8 0-1.1zm90.6 9q0.2-0.3 0.6-1.3 0.5-1.1 0.8-1.4l1.3-1.3 0.2-0.6q0-0.2-0.2-0.5 0-0.3 0-0.3-0.1-0.1-0.6-0.7-0.4-0.6-0.9-1.2-0.4-0.8-0.9-1.4-0.3-0.6-0.3-0.7 0-0.2-0.1-1.1 0-1 0-1.8 0-0.4 0-1.3 0.1-1.1 0.1-1.2 0.2-0.2 0.8-0.9 0.6-0.9 1.2-1.8 0.7-0.9 1.3-1.7 0.6-0.7 0.8-1 0-0.2 0-1.4 0.1-1.2 0.1-1.9 0-0.8-0.1-2 0-1.3 0-1.5 0-0.1-0.5-0.9-0.4-0.9-0.9-1.8-0.4-0.9-0.9-1.6-0.4-0.8-0.4-1.1-0.2-0.7-0.3-2.7 0-1.9 0-4 0-2.1 0-4.1 0.1-1.9 0.3-2.7-0.6-0.1-2.1-0.6-1.5-0.4-2-0.7-0.3-0.2-1.3-0.8-1.1-0.6-1.4-0.6-0.1 0-1.2 0-1-0.1-1.8-0.1-0.4 0-1.5 0.1-0.9 0-0.9 0-0.3 0.2-0.7 1.4-0.5 1-0.6 1.3-0.3 0.3-0.8 0.9-0.4 0.5-0.6 0.5-0.3 0.1-1.3 0.4-1.1 0.2-2.4 0.5-1.4 0.1-2.6 0.3-1.2 0.1-1.8 0.1h-2.1-1.9q-0.3-0.1-1.4-0.6-1-0.4-1.3-0.7l-2.7-2.7q-0.3-0.3-0.8-1.4-0.4-1-0.6-1.3 0-0.2-0.1-0.9 0-0.9 0-1.2 0-0.5 0-1.2 0.1-0.8 0.1-0.8 0.2-0.3 1.4-0.6 1.2-0.4 1.3-0.7 0.2-0.3 0-1.4 0-1 0-1.3l1.4-2.7q0.1-0.3 0.6-0.6 0.4-0.5 0.7-0.8l4.1-2.7q0.3-0.3 1.8-0.6 1.5-0.4 2.2-0.7h0.6 0.8q0.1 0.1 0.6 0.6 0.6 0.4 0.7 0.7 0.3 0.3 0.8 1.4 0.4 1 0.6 1.3 0.4 0.2 1.6 0.3 1.4 0 1.7 0 0.7 0 1.9 0 1.4-0.1 1.5-0.3 0.3-0.1 1.1-0.9 0.7-0.9 1.6-1.8 0.9-1 1.7-1.8 0.7-0.7 1-0.9 0.6-0.4 1.8-1.3 1.4-0.9 2.6-1.7 1.3-0.9 2.4-1.5 1-0.7 1.3-0.9 0.2 0 1.2 0 1.2-0.1 2-0.1 0.7 0 1.9 0.1 1.4 0 1.7 0 0.3 0 1.2 0.5 1 0.4 2.1 0.9 1.2 0.4 2.1 0.9 1 0.4 1.3 0.4 0.2 0 1.1 0.2 1 0 2.3 0 1.1 0 2.5 0.1 1.5 0 2.2 0 0.5 0 1.5 0 1.3-0.1 2.6-0.1 1.3 0 2.4 0 1.2-0.2 1.6-0.2 0.2-0.1 0.9-0.6 0.9-0.4 1.8-0.9 1-0.4 1.7-0.7 0.8-0.5 1-0.5 0.2 0 1.8 0 1.8-0.1 2.6-0.1 1.2 0 3 0.1 1.8 0 2.1 0 0.8 0.2 2.8 0.6 2.1 0.5 2.6 0.8 0.3 0.3 1.8 1.8 1.6 1.5 2.2 2.2 0.4 0.3 0.8 1.4 0.4 1 0.6 1.3 0 0.2 0 0.6 0.1 0.5 0.1 0.8 0 0.3-0.1 0.9 0 0.4 0 0.4l-2.7 5.4q-0.3 0.3-0.8 0.9-0.4 0.5-0.5 0.5-0.5 0.1-1.9 0.4-1.3 0.2-2.8 0.5-1.5 0.1-2.8 0.3-1.4 0.1-2 0.1l-1.4 2.7q-1.1 0-3.9 0-2.5-0.1-5.5-0.1-3 0-5.7 0.1-2.5 0-3.8 0-0.2 0-1.7 0.6-1.5 0.5-2.3 0.8-1.1 0.3-1.4 1.3-0.3 0.8-0.7 2.1-0.5 1.4-0.9 2.9-0.5 1.5-0.7 2.8-0.4 1.2-0.4 1.7v1.5 2.5 2.6 1.5q0 0.1-0.4 0.7-0.3 0.6-0.8 1.4-0.4 0.6-0.9 1.2-0.4 0.6-0.6 0.7v0.6 0.8q0 0.3 0.2 1.5 0.3 1.2 0.4 2.5 0.3 1.4 0.5 2.6 0.3 1.2 0.3 1.5 0 0.3-0.3 1-0.2 0.8-0.5 1.7-0.1 0.9-0.4 1.8-0.2 0.7-0.2 0.9 0 0.1-0.1 1.5 0 1.2 0 1.9 0 0.8 0 2 0.1 1.2 0.1 1.3 0 0.3 0.2 1.1 0.3 0.7 0.4 1.6 0.3 0.9 0.5 1.8 0.3 0.8 0.3 0.9 0 1.2 0 4.1 0.1 2.8 0.1 6.1 0 3.2-0.1 6 0 2.9 0 4.1 0.1 0.1 0.7 0.7 0.6 0.6 1.2 1.4 0.8 0.6 1.4 1.2 0.6 0.6 0.7 0.7 0.2 0.3 0.5 1.4 0.4 0.9 0.9 1.9 0.4 1.1 0.8 2.1 0.4 0.9 0.5 1.4 0 0.1 0 0.9 0.2 0.7 0.2 1 0 0.3-0.2 1.2 0 0.8 0 0.9 0 0.3-0.5 1.8-0.5 1.5-0.8 2.3-0.3 0.6-0.7 1.6-0.5 0.9-0.7 1.1-0.3 0.3-1.8 0.7-1.5 0.5-2.2 0.6h-2.1-2q-0.3-0.1-1.3-0.6-1.1-0.4-1.4-0.7-0.3-0.2-1.2-0.9-0.7-0.8-1.6-1.7-0.9-0.9-1.7-1.6-0.7-0.9-0.9-1.2-0.3-0.3-0.7-1.4-0.5-1-0.6-1.3-0.2-0.8-0.6-3.2-0.3-2.5-0.8-5.2-0.4-2.9-0.9-5.4-0.3-2.7-0.4-3.8-0.2-0.9-0.5-3.1-0.1-2.4-0.4-5-0.2-2.5-0.3-4.8-0.2-2.4-0.2-3.3zm63.4 4.4v-3.6-2.9q0-2.1 0-4.2 0.1-2.2 0.1-4.3v-2.9q0.3-0.3 1-1.2 0.9-1 1.7-2.1 0.9-1 1.7-1.9 0.7-1.1 1-1.5 0 0 0-0.5 0.1-0.4 0.1-0.7 0-0.3-0.1-0.8 0-0.6 0-0.7 0-0.2-0.5-0.9-0.3-0.8-0.7-1.7-0.4-0.9-0.9-1.6-0.4-0.9-0.6-1.2-0.2-0.2-0.6-0.8-0.5-0.6-0.9-1.2-0.4-0.7-0.9-1.3-0.3-0.6-0.3-0.8v-2.2-3.2q0-1 0.1-3.6 0.2-2.7 0.3-5.4 0.4-2.8 0.5-5.2 0.3-2.6 0.5-3.3 0-0.6 0.1-2 0.1-1.3 0.3-2.8 0.3-1.7 0.5-2.9 0.2-1.3 0.4-1.8l1.3-4 1.4-2.7q0.5-0.8 1.4-1.7 1-1 1.3-1 0.2-0.2 1.8-0.2 1.6-0.1 2.4-0.1 0.7 0 2.2 0.1 1.5 0 1.7 0.2 0.2 0 0.6 0.6 0.6 0.4 1.2 1.2 0.6 0.6 1.2 1.3 0.7 0.6 1.1 0.9 0.2 0.3 0.7 1.4 0.4 1 0.6 1.3 0 0.2 0 0.8 0.2 0.4 0.2 0.7 0 0.3-0.2 0.8 0 0.4 0 0.4l-4.1 6.8q0 0-0.1 0.3 0 0.3 0 0.4l0.1 0.6q0.2 0.2 0.6 0.8 0.5 0.6 0.9 1.3 0.5 0.6 0.8 1.2 0.5 0.6 0.5 0.8 0 0 0 0.7 0 0.6 0 1.5 0.1 0.9 0.1 1.8 0 0.9 0 1.5v1.7q0 0.9-0.1 2.1 0 1 0 1.9v0.9q-0.2 1.7-0.7 5.9-0.2 4.2-0.7 9-0.5 4.6-0.9 9-0.3 4.2-0.5 5.8-0.2 0-0.7 0.6-0.4 0.5-0.6 0.8 0 0.1-0.2 1.2 0 0.9 0 1.3 0 0.6 0 1.7 0.2 1 0.2 1.2 0 0.3 0.6 2.1 0.7 1.6 0.7 1.9 0 0.3-0.2 1.1-0.2 0.7-0.5 1.6-0.2 0.9-0.4 1.8-0.2 0.8-0.2 0.9 0 0.3-0.2 2.4 0 2 0 2.9 0 0.9 0 2.5 0.2 1.5 0.2 1.7 0 0.3 0.6 1.2 0.6 0.7 1.3 1.6 0.8 0.9 1.4 1.7 0.6 0.7 0.8 0.9 0.2 0.4 0.7 2.1 0.4 1.5 0.6 1.9 0 0.2 0 1.7 0.2 1.5 0.2 2.2 0 0.8-0.2 2.4 0 1.5 0 1.8 0 0.5-0.2 2-0.1 1.3-0.4 2.8-0.1 1.5-0.5 2.9-0.1 1.3-0.2 1.8-0.4 0.3-1.4 0.7-1 0.5-1.4 0.6h-2.8-2.6q-0.6 0-2.7-1-1.9-1.2-2.6-1.7-0.4-0.3-1.4-1.2-1-1-1.4-1.5-0.6-0.7-1-1.9-0.5-1.2-0.7-1.8-0.4-1.2-0.7-2.6-0.2-1.3-0.2-1.8-0.2-0.9-0.5-3-0.1-2.2-0.5-4.6-0.1-2.4-0.3-4.4-0.1-2.1-0.1-2.8v-2q0-1.6-0.1-3.9 0-2.2 0-4.6zm2.8-8.4q-0.8-0.3-0.8 0.7 0 0.9 0.6 0.6 0.8-0.3 0.8-0.6 0-0.6-0.6-0.7zm54 4q0.1-0.3 0.6-1.3 0.4-1.1 0.7-1.4l1.4-1.3 0.1-0.6q0-0.2-0.1-0.5 0-0.3 0-0.3-0.2-0.1-0.6-0.7-0.5-0.6-0.9-1.2-0.5-0.8-0.9-1.4-0.3-0.6-0.3-0.7 0-0.2-0.2-1.1 0-1 0-1.8 0-0.4 0-1.3 0.2-1.1 0.2-1.2 0.1-0.2 0.7-0.9 0.6-0.9 1.2-1.8 0.8-0.9 1.4-1.7 0.6-0.7 0.7-1 0-0.2 0-1.4 0.2-1.2 0.2-1.9 0-0.8-0.2-2 0-1.3 0-1.5 0-0.1-0.4-0.9-0.5-0.9-0.9-1.8-0.5-0.9-0.9-1.6-0.5-0.8-0.5-1.1-0.1-0.7-0.3-2.7 0-1.9 0-4 0-2.1 0-4.1 0.2-1.9 0.3-2.7-0.6-0.1-2.1-0.6-1.5-0.4-1.9-0.7-0.3-0.2-1.4-0.8-1-0.6-1.3-0.6-0.2 0-1.2 0-1.1-0.1-1.8-0.1-0.5 0-1.5 0.1-0.9 0-0.9 0-0.3 0.2-0.8 1.4-0.4 1-0.6 1.3-0.3 0.3-0.7 0.9-0.5 0.5-0.6 0.5-0.3 0.1-1.4 0.4-1 0.2-2.4 0.5-1.3 0.1-2.5 0.3-1.2 0.1-1.8 0.1h-2.1-2q-0.3-0.1-1.3-0.6-1.1-0.4-1.4-0.7l-2.7-2.7q-0.3-0.3-0.7-1.4-0.5-1-0.6-1.3 0-0.2-0.2-0.9 0-0.9 0-1.2 0-0.5 0-1.2 0.2-0.8 0.2-0.8 0.1-0.3 1.3-0.6 1.2-0.4 1.4-0.7 0.1-0.3 0-1.4 0-1 0-1.3l1.3-2.7q0.2-0.3 0.6-0.6 0.5-0.5 0.8-0.8l4-2.7q0.3-0.3 1.8-0.6 1.5-0.4 2.3-0.7h0.6 0.7q0.2 0.1 0.6 0.6 0.6 0.4 0.8 0.7 0.3 0.3 0.7 1.4 0.5 1 0.6 1.3 0.5 0.2 1.7 0.3 1.3 0 1.6 0 0.8 0 2 0 1.3-0.1 1.5-0.3 0.3-0.1 1-0.9 0.8-0.9 1.7-1.8 0.9-1 1.6-1.8 0.8-0.7 1.1-0.9 0.6-0.4 1.8-1.3 1.3-0.9 2.5-1.7 1.4-0.9 2.4-1.5 1.1-0.7 1.4-0.9 0.1 0 1.2 0 1.2-0.1 1.9-0.1 0.8 0 2 0.1 1.3 0 1.6 0 0.3 0 1.2 0.5 1.1 0.4 2.1 0.9 1.2 0.4 2.1 0.9 1.1 0.4 1.4 0.4 0.1 0 1 0.2 1.1 0 2.3 0 1.2 0 2.5 0.1 1.5 0 2.3 0 0.4 0 1.5 0 1.2-0.1 2.5-0.1 1.4 0 2.4 0 1.2-0.2 1.7-0.2 0.1-0.1 0.9-0.6 0.9-0.4 1.8-0.9 0.9-0.4 1.6-0.7 0.8-0.5 1.1-0.5 0.1 0 1.8 0 1.8-0.1 2.5-0.1 1.2 0 3 0.1 1.8 0 2.1 0 0.8 0.2 2.9 0.6 2.1 0.5 2.5 0.8 0.3 0.3 1.8 1.8 1.7 1.5 2.3 2.2 0.3 0.3 0.7 1.4 0.5 1 0.6 1.3 0 0.2 0 0.6 0.2 0.5 0.2 0.8 0 0.3-0.2 0.9 0 0.4 0 0.4l-2.7 5.4q-0.3 0.3-0.7 0.9-0.5 0.5-0.6 0.5-0.5 0.1-1.8 0.4-1.4 0.2-2.9 0.5-1.5 0.1-2.8 0.3-1.4 0.1-2 0.1l-1.3 2.7q-1.2 0-3.9 0-2.6-0.1-5.6-0.1-3 0-5.7 0.1-2.5 0-3.7 0-0.3 0-1.8 0.6-1.5 0.5-2.3 0.8-1 0.3-1.3 1.3-0.3 0.8-0.8 2.1-0.4 1.4-0.9 2.9-0.4 1.5-0.7 2.8-0.3 1.2-0.3 1.7v1.5 2.5 2.6 1.5q0 0.1-0.5 0.7-0.3 0.6-0.7 1.4-0.5 0.6-0.9 1.2-0.5 0.6-0.6 0.7v0.6 0.8q0 0.3 0.1 1.5 0.3 1.2 0.5 2.5 0.3 1.4 0.4 2.6 0.3 1.2 0.3 1.5 0 0.3-0.3 1-0.1 0.8-0.4 1.7-0.2 0.9-0.5 1.8-0.1 0.7-0.1 0.9 0 0.1-0.2 1.5 0 1.2 0 1.9 0 0.8 0 2 0.2 1.2 0.2 1.3 0 0.3 0.1 1.1 0.3 0.7 0.5 1.6 0.3 0.9 0.4 1.8 0.3 0.8 0.3 0.9 0 1.2 0 4.1 0.2 2.8 0.2 6.1 0 3.2-0.2 6 0 2.9 0 4.1 0.2 0.1 0.8 0.7 0.6 0.6 1.2 1.4 0.7 0.6 1.3 1.2 0.6 0.6 0.8 0.7 0.1 0.3 0.4 1.4 0.5 0.9 0.9 1.9 0.5 1.1 0.8 2.1 0.4 0.9 0.6 1.4 0 0.1 0 0.9 0.1 0.7 0.1 1 0 0.3-0.1 1.2 0 0.8 0 0.9 0 0.3-0.6 1.8-0.5 1.5-0.8 2.3-0.3 0.6-0.7 1.6-0.5 0.9-0.6 1.1-0.3 0.3-1.8 0.7-1.5 0.5-2.3 0.6h-2.1-1.9q-0.3-0.1-1.4-0.6-1-0.4-1.3-0.7-0.3-0.2-1.2-0.9-0.8-0.8-1.7-1.7-0.9-0.9-1.6-1.6-0.8-0.9-0.9-1.2-0.3-0.3-0.8-1.4-0.4-1-0.6-1.3-0.1-0.8-0.6-3.2-0.3-2.5-0.7-5.2-0.5-2.9-0.9-5.4-0.3-2.7-0.5-3.8-0.1-0.9-0.4-3.1-0.2-2.4-0.5-5-0.1-2.5-0.3-4.8-0.1-2.4-0.1-3.3zm101.2-5.4q-0.6 0-1.9 0.2-1.2 0-2.9 0-1.5 0-2.8 0-1.4-0.2-1.8-0.2-0.3 0-1.4-0.6-1-0.7-1.3-0.7-0.2 0-0.6 0.6-0.4 0.4-0.8 0.7-0.3 0.3-0.7 1.2-0.4 0.9-0.9 1.8-0.5 0.9-0.8 1.7-0.2 0.7-0.2 0.7 0 0.2-0.2 1.7 0 1.5 0 2.2 0 0.8 0 2.4 0.2 1.5 0.2 1.8 0.1 0.8 0.7 3.8 0.6 3 1.2 6.4 0.7 3.3 1.3 6.3 0.6 3 0.8 3.8 0 0.1 0 1.2 0.1 1 0.1 1.5 0 0.6-0.1 1.6 0 0.9 0 1.1 0 0.3-0.6 1.3-0.4 1.1-0.8 1.4-0.3 0.3-0.9 1-0.6 0.6-1.3 1.4-0.6 0.6-1.2 1.2-0.5 0.4-0.6 0.4-0.1 0.2-1.5 0.3-1.2 0-2 0-0.7 0-1.9 0-1.2-0.1-1.4-0.3-0.3-0.1-1-0.7-0.6-0.6-1.5-1.5-0.9-0.9-1.7-1.7-0.7-0.9-1.1-1.5 0 0-0.5-0.7-0.3-0.8-0.8-1.7-0.4-0.9-0.9-1.6-0.4-0.9-0.6-1.4l-1.3-4q-0.2-0.9-0.4-2.6-0.2-1.6-0.5-3.3-0.2-1.6-0.3-3-0.2-1.5-0.2-1.9v-70.2q-0.3-0.2-0.7-0.9-0.5-0.9-0.9-1.8-0.4-0.9-0.8-1.7-0.3-0.7-0.3-1 0-0.2-0.1-1.7 0-1.6 0-2.4 0-0.7 0-2.2 0.1-1.7 0.1-1.8 0.3-0.9 1.2-2.9 1-1.9 1.5-2.5 0.2-0.2 0.8-0.5 0.7-0.4 1.7-0.9 0.8-0.4 1.6-0.7 0.9-0.5 1.4-0.6 0.5-0.2 1.6-0.3 1.2-0.3 2.4-0.5 1.3-0.3 2.4-0.4 1.2-0.2 1.6-0.2 0.3 0 1.4 0.8 1.1 0.6 1.3 0.6 0.2 0 1.1 0.1 1 0 1.7 0 0.4 0 1.5 0 1-0.1 1.1-0.1 0.4-0.2 1.4-0.6 1-0.5 1.3-0.8h21.7q0 0.5 0.4 1.4 0.6 0.7 1.2 1.6 0.7 0.9 1.4 1.7 0.7 0.6 1 0.7 0.1 0 1.3 0.2 1.4 0 2.2 0 0.8 0 2.5 0 1.8-0.2 2.1-0.2 0.3 0 1.4-0.6 1-0.7 1.3-0.7 0.2 0 1.3 0 1.2-0.2 2-0.2 0.7 0 1.9 0.2 1.4 0 1.5 0 0.2 0 1.1 0.6 1 0.4 1.6 0.7l4.1 2.7q0.4 0.3 1.3 1.4 1.1 1 1.4 1.3 0.3 0.3 0.7 1.4 0.5 0.9 0.6 1.3v0.8 0.6q-0.1 0.1-0.6 0.7-0.4 0.6-0.9 1.4-0.4 0.6-0.8 1.2-0.4 0.6-0.4 0.7 0 0.2-0.1 0.9 0 0.8 0 1.2 0 0.3 0 1.1 0.1 0.7 0.1 0.9 0 0.1 0.4 0.7 0.4 0.6 0.8 1.4 0.5 0.6 0.9 1.2 0.5 0.6 0.6 0.7l1.4 2.7v0.8 0.6q-0.2 0.6-0.6 2.1-0.5 1.5-0.8 1.9-0.3 0.6-0.7 1.5-0.3 0.8-0.8 1.7-0.3 0.7-0.7 1.5-0.3 0.6-0.5 0.7l-18.9 18.9q0 0-0.1 0.3 0 0.2 0 0.5l0.1 0.6 2.8 4q0.2 0.3 0.7 1.4 0.4 1 0.6 1.3 0 0.3 0.4 2.1 0.6 1.7 0.9 2 0.2 0.3 1.1 1.3 1 0.9 2.1 2.1 1.2 1.1 2.2 2.1 1.1 1.1 1.4 1.2 0.3 0.3 1.3 2 1.1 1.6 1.4 2.1 0.3 0.6 1 2.2 0.9 1.5 1.7 3.3 0.9 1.7 1.7 3.2 0.7 1.5 1 2.1 0.1 0.3 0.3 0.7 0.2 0.5 0.3 1.4 0.6 1.5 0.7 1.9 0.2 0.5 0.5 1.7 0.3 1.3 0.6 3 0.3 1.6 0.3 2.1 0 0.1 0 1.5 0.1 1.2 0.1 1.9 0 0.8-0.1 2 0 1.2 0 1.3 0 0.3-0.6 1.8-0.5 1.5-0.8 2.3l-1.3 2.7q-0.6 0.7-2.3 2.2-1.5 1.5-1.7 1.8h-1.9-2.2q-0.4 0-1.5-0.1-1.1-0.2-2.3-0.3-1-0.3-1.9-0.5-0.9-0.3-1.1-0.4-0.1 0-0.6-0.5-0.4-0.6-0.7-0.9-0.3-0.3-0.8-1.3-0.4-1.1-0.5-1.4-0.4-0.7-0.8-2.5-0.5-2-0.9-3.9-0.5-2-0.8-3.6-0.3-1.7-0.3-2.1v-1.5-2.6-2.5-1.5q-0.1-0.3-1.2-1.4-1-1-1.5-1.3-0.3-0.3-2-0.6-1.7-0.5-2-0.8-0.3-0.3-1.4-1.9-1-1.8-1.3-2.1-0.3-0.3-0.9-1.1-0.6-0.9-1.4-1.6-0.5-0.9-1.2-1.7-0.4-0.7-0.6-1-0.2-0.5-1.2-1.5-0.9-1.2-2-2.4-1.1-1.4-2.2-2.6-0.8-1.2-1.3-1.6-0.3-1.1-1.4-1.4zm-20.4-28.3q0 0.6 0 1.6 0.2 0.9 0.2 1.1 0 0.1 0.4 0.6 0.6 0.4 0.9 0.7 0.3 0.3 1.4 0.8 1 0.4 1.3 0.6h0.6 0.8q0.4-0.2 1.3-0.5 0.9-0.4 2-0.9 1.2-0.4 2.1-0.7 0.9-0.5 1.3-0.6 1.1-0.5 3-1.4 2.1-1 4.2-2.1 2.3-1.2 4.1-2.1 1.8-0.9 2.2-1.2 0.2-0.1 1.2-0.7 1.1-0.8 2.3-1.5 1.3-0.9 2.5-1.7 1.4-0.9 2.1-1.5 0.6-0.4 1.4-1 0.9-0.6 1.6-1.2 0.9-0.6 1.5-1.1 0.8-0.6 0.9-0.7 0.3-0.3 0.8-1.2 0.4-1.1 0.6-1.5 0-0.2 0-0.6 0.1-0.5 0.1-0.8 0-0.3-0.1-0.7 0-0.6 0-0.6-0.3-1.1-1.4-1.4-0.9-0.1-3.3-0.7-2.2-0.6-4.8-1.2-2.5-0.6-4.9-1.2-2.3-0.6-3.2-0.9h-0.7-0.6l-5.4 1.3q-0.5 0.2-1.8 0.5-1.3 0.1-2.9 0.4-1.4 0.2-3 0.3-1.3 0.2-1.8 0.2-0.3 0.3-0.7 1.3-0.5 1.1-0.6 1.4-0.2 0.4-0.6 2.1-0.3 1.5-0.8 3.3-0.4 1.8-0.9 3.4-0.3 1.5-0.4 2 0 0.3-0.5 1-0.4 0.8-0.9 1.7-0.4 0.9-0.9 1.8-0.4 0.7-0.4 0.9 0 0.1-0.2 1.2 0 1 0 1.5zm67.5 19.6q0-1 0-2.8 0.2-1.8 0.2-2 0-0.1 0.4-1.6 0.6-1.7 0.9-2.4l2.7-6.8q0.2-0.3 0.3-1.2 0.3-1 0.5-2.1 0.3-1.2 0.4-2.1 0.2-1 0.2-1.3 0.1-1.2 0.3-4.2 0.3-3.2 0.4-6.6 0.3-3.5 0.5-6.5 0.1-3.1 0.1-4.3 0.2-0.3 0.6-1.1 0.6-0.7 1.2-1.6 0.8-0.9 1.4-1.7 0.6-0.7 0.9-1 0.4-0.5 1.3-1.5 1.1-1.1 1.4-1.2 0.1 0 0.9-0.3 0.9-0.3 1.9-0.8 1.1-0.4 2.1-0.9 1.2-0.4 1.8-0.7 6.6-2.6 13.4-3.6 6.7-1.1 13.6-1.8 0.3 0.4 1.8 1.6 1.7 1.1 2.3 1.1 0.1 0 1.3 0.1 1.2 0.2 2 0.2 0.7 0 1.9-0.2 1.4-0.1 1.5-0.1 0.5-0.2 1.5-1.1 1.1-1 1.2-1.6h16.2q0.2 0 1.2 0.9 1.2 0.9 2 2.1 0.3 0.3 0.4 0.6 0.3 0.1 0.5 0.4 0.3 0.5 0.7 2.1 0.5 1.5 0.6 2 0 0.1 0 1.8 0.2 1.5 0.2 2.2 0 0.8-0.2 2.4 0 1.5 0 1.7-0.1 0.4-0.6 1.5-0.4 0.9-0.7 1.2-0.3 0.3-1.8 0.7-1.5 0.5-2.3 0.6h-2.1-1.9q-0.3 0-1.4-0.1-0.9-0.3-2.1-0.5-1-0.3-2.1-0.4-0.9-0.3-1.2-0.3-0.3 0-2.2 0-1.8-0.2-2.7-0.2-0.9 0-2.7 0.2-1.7 0-1.8 0-0.3 0-1.5 0.4-1.2 0.3-2.7 0.8-1.5 0.4-3 0.9-1.5 0.4-2.3 0.6l-16.2 5.4q-0.6 0.4-2.1 2.1-1.5 1.5-1.9 1.9-0.3 0.3-0.8 1.8-0.4 1.5-0.6 2.3 0 0.1-0.1 1.2 0 1 0 1.5 0 0.3 0 1.3 0.1 1.1 0.1 1.4 1.5-0.5 5.3-1.4 3.9-0.9 8.2-1.9 4.4-1.2 8.1-2.1 3.9-0.9 5.4-1.4 0.6-0.1 1.7-0.3 1-0.3 2.1-0.4 1-0.3 1.8-0.5 0.9-0.1 1.2-0.1 0.3 0 2.1 0 1.8-0.2 2.7-0.2 0.9 0 2.7 0.2 1.8 0 1.9 0 0.3 0 1.2 0.6 1.1 0.4 1.5 0.7 1.1 0.3 1.4 1.4 0.3 0.4 0.7 1.5 0.6 0.9 0.6 1.2 0 0.1 0 1 0.2 0.8 0.2 1.1 0 0.3-0.2 1 0 0.8 0 0.9-0.1 0.3-0.6 1.2-0.3 0.8-0.7 1.7-0.5 0.7-0.9 1.5-0.3 0.7-0.5 1-0.7 0.5-2.7 1.5-1.8 0.9-4 2.1-2.1 1.1-4.1 2.1-1.9 0.9-2.7 1.1-0.7 0.3-3 1-2.1 0.6-4.9 1.7-2.9 0.9-6.2 2.1-3.3 1-6.3 2.1-2.8 0.9-5.1 1.6-2.1 0.6-2.8 0.9-0.6 0.3-2.7 1.4-2 1-2.7 1.3-1.1 0.3-1.4 1.4-0.3 0.4-0.9 1.5-0.4 0.9-0.4 1.2v0.9q0 0.7-0.2 1.6 0 0.9 0 2.1v1.5 1.5q0 0.9 0 2 0.2 0.9 0.2 1.8v0.7q0 0.5 0.4 2.1 0.6 1.5 0.9 2 0.2 0.4 0.8 1.3 0.6 0.8 1.2 1.7 0.6 0.9 1.2 1.6 0.6 0.6 0.9 0.8 0.1 0 1.3 0.1 1.2 0 2 0 0.7 0 1.9 0 1.4-0.1 1.5-0.1 0.2 0 0.9-0.2 0.8-0.1 1.7-0.3 0.9-0.3 1.6-0.4 0.8-0.3 1.2-0.5 1.1-0.4 3-1 2-0.6 3.9-1.2 2-0.8 3.5-1.2 1.5-0.5 1.8-0.6 0.1-0.2 1.6-0.9 1.7-0.9 3.6-2 2-1 3.9-2.1 2-1 3-1.8 0.5-0.3 2-1.2 1.5-1 2.1-1.5 0.4-0.1 1.9-1.3 1.7-1.2 3.5-2.6 1.8-1.5 3.3-2.7 1.6-1.2 2.1-1.5 0.7-0.4 2.7-1.3 1.9-1.1 2.7-1.4 0.1 0 0.6 0 0.4-0.1 0.7-0.1 0.3 0 0.8 0.1 0.6 0 0.6 0 0.3 0.2 1.2 1.2 1 1.1 1.5 1.5 0.3 0.5 0.7 1.5 0.6 0.9 0.6 1.2v0.8q0 0.7 0 1.6 0.2 0.9 0.2 1.8v1.5q0 1.2-0.2 3.2 0 1.8 0 1.9 0 0.6-1.2 2.7-1 2-1.5 2.7l-6.7 6.8q-0.3 0.3-1.1 0.9-0.7 0.4-1.6 1.2-0.8 0.6-1.5 1.2-0.8 0.4-1.2 0.7-1.1 0.6-2.9 1.7-1.6 1-3.4 2.2-1.7 1.1-3 2-1.4 0.7-1.5 0.9-0.2 0.1-1.1 0.1-0.7 0-1.8 0-0.9-0.1-1.6-0.1h-0.9q-0.3 0.1-1.4 0.6-1 0.4-1.3 0.7l-5.4 5.4q-0.3 0.3-1.4 0.8-0.9 0.4-1.3 0.6l-5.4 1.3-2.7 1.4q-0.3 0.1-1.5 0.4-1.2 0.2-2.6 0.5-1.3 0.1-2.5 0.3-1.2 0.1-1.5 0.1h-4.1-4q-0.8 0-2.1-0.1-1.4-0.2-2.7-0.3-1.2-0.3-2.3-0.5-0.9-0.3-1-0.4-0.3-0.2-1.5-1.1-1.1-1-2.4-2.4-1.4-1.3-2.6-2.5-1.2-1.4-1.6-2.1-0.2-0.2-0.6-0.9-0.3-0.8-0.8-1.7-0.4-0.9-0.9-1.6-0.3-0.9-0.4-1.2-0.3-0.8-0.9-2.7-0.5-2.1-0.5-2.7v-1.5-2.6-2.5-1.5q0-0.3-0.7-2-0.6-1.8-0.6-2.1-0.2-0.6-0.3-3-0.2-2.4-0.5-5.1-0.1-2.7-0.3-4.9-0.1-2.4-0.3-3.2 0-0.3-0.7-1.9-0.6-1.8-0.6-2.1 0-0.2-0.2-2 0-1.8 0-2.7zm101.3 36.9q0-0.4 0-1.3 0.1-1.1 0.1-1.2 0-0.2 0.5-0.6 0.6-0.5 0.9-0.8 0.1-0.1 0.9-0.4 0.9-0.5 1.8-0.8 0.9-0.4 1.6-0.7 0.9-0.5 1.1-0.8 0.1-0.1 0.1-1 0.2-1.1 0.2-1.5 0-0.6-0.2-1.7 0-1-0.1-1.2-0.2-0.3-1.4-0.7-1-0.5-1.3-0.6-1.1-0.3-1.4-1.4 0.3-0.3 1.4-0.7 1-0.5 1.3-0.6 0.2 0 1.2 0 1.2-0.2 1.8-0.2 0.5 0 1.4 0.2 1 0 1 0 0 0 0.8 0.7 0.7 0.6 1.6 1.5 0.9 0.9 1.7 1.8 0.9 0.9 1.3 1.4l2.7 4q0.3 0.3 0.8 0.9 0.4 0.5 0.6 0.5h20.2q0.2 0 1.7-0.5 1.6-0.6 2.4-0.9l2.7-1.3q0.3 0 1.9-0.5 1.8-0.6 2.1-0.9 0.2-0.1 1.4-1 1.2-1.1 2.7-2.3 1.5-1.3 3-2.5 1.5-1.4 2.4-2.3 0.4-0.3 1.3-1.3 1.1-1.1 1.4-1.4 0.4-0.6 1.2-1.5 0.9-1 1.6-2.1 0.9-1 1.7-1.9 0.7-0.9 0.9-1.2 0.4-0.8 1.3-2.7 1.1-2 1.4-2.7 0-0.2 0-0.6 0.1-0.6 0.1-0.9 0-0.3-0.1-0.8 0-0.4 0-0.4-0.5-0.6-1.2-1.4-0.8-0.9-1.7-1.6-0.7-0.9-1.5-1.5-0.7-0.8-1-0.9-0.3-0.2-1.8-0.3-1.5-0.3-3.5-0.5-1.9-0.3-3.9-0.4-1.9-0.2-3-0.2-0.9 0-3.3 0-2.2-0.1-4.8-0.1-2.5 0-4.9 0.1-2.3 0-3.2 0-0.3-0.3-1.3-0.7-1.1-0.5-1.4-0.6h-0.7-0.6q-0.2 0.1-1.1 0.7-0.7 0.6-1.8 1.4-0.9 0.6-1.6 1.2-0.8 0.6-0.9 0.7-0.6 0.3-2.7 0.9-2.1 0.5-2.7 0.5-0.3 0-2.1 0.1-1.8 0-3 0-0.8 0-2.6 0-1.6-0.1-1.8-0.1-0.1 0-1-0.3-0.8-0.5-1.8-0.9-0.9-0.5-1.7-0.9-0.7-0.5-0.9-0.6 0 0-0.3 0-0.3-0.2-0.4-0.2l-0.6 0.2-2.7 2.7q0 0-0.3 0.1-0.3 0-0.5 0l-0.6-0.1q-0.7-0.3-2.7-1.2-1.9-1.1-2.7-1.5-1-0.3-1.3-1.4-0.5-0.6-1.2-1.8-0.6-1.3-1.4-2.7-0.6-1.3-1-2.2-0.5-1.1-0.5-1.4 0-0.1-0.1-1.6-0.2-1.7-0.2-2.4 0-0.8 0.2-2.3 0.1-1.6 0.1-1.8 0-0.1 0.3-0.7 0.5-0.6 0.9-1.2 0.5-0.8 0.9-1.4 0.5-0.6 0.6-0.7l2.7-5.4 2.7-4.1q0.3-0.4 1.5-1.8 1.4-1.3 2.9-2.8 1.6-1.7 3-3 1.5-1.4 2.1-1.8 0.1-0.2 1-0.9 1.1-0.8 2.1-1.7 1.2-0.9 2.1-1.6 1.1-0.8 1.5-1.2l8.1-5.4q0.6-0.5 1.7-1.1 1-0.6 2.1-1.2 1-0.7 1.8-1.2 0.9-0.4 1.2-0.6 0.1-0.1 1.3-0.6 1.4-0.6 2.9-1.2 1.5-0.7 3-1.3 1.5-0.6 2.2-0.9 4.5-1.7 9-2.3 4.5-0.6 9.3-0.6h1.5q1.2 0 2.1 0.2 0.9 0 1.7 0h0.7q0.2 0 1.7 0.6 1.6 0.4 2.4 0.7 0.4 0.3 1.3 0.8 1.1 0.4 1.4 0.6l4 4q0.3 0.3 0.8 1.4 0.6 1 0.6 1.3 0 0.2 0 2 0.1 1.8 0.1 2.8 0 0.9-0.1 2.7 0 1.8 0 2 0 0.3-0.6 1.3-0.5 1.1-0.8 1.4-0.4 0.6-1.3 1.5-0.8 0.7-1.7 1.6-0.7 0.8-1.5 1.5-0.7 0.6-0.9 0.8 0 0-0.7 0.1-0.8 0-1.2 0-0.3 0-1.2 0-0.8-0.1-0.9-0.1-0.2 0-0.6-0.5-0.5-0.6-0.8-0.9-0.1-0.1-0.6-0.9-0.3-0.9-0.7-1.8-0.5-0.9-0.9-1.6-0.3-0.9-0.5-1.1-0.3-0.3-1.3-0.7-0.9-0.5-1.4-0.6-0.1 0-1 0-0.8-0.2-1.1-0.2-0.4 0-1.2 0.2-0.7 0-0.7 0-0.3 0.1-1.2 0.7-0.8 0.6-1.7 1.4-0.9 0.6-1.6 1.2-0.8 0.6-0.9 0.7-0.3 0.2-1.4 0.6-0.9 0.3-2.1 0.8-1 0.4-2.1 0.9-1 0.3-1.2 0.4-0.3 0.2-1.2 0.6-0.7 0.3-1.6 0.8-0.9 0.4-1.7 0.9-0.7 0.3-0.9 0.4-0.4 0.3-2.1 1.4-1.5 0.9-1.9 1.3-0.6 0.3-1.8 1.2-1.1 0.9-2.1 1.8-1.1 0.9-2 1.7-0.7 0.6-0.9 0.7-0.1 0.3-0.7 1.4-0.5 0.9-0.6 1.3 0 0.3 0.1 0.8 0.2 0.3 0.2 0.4 0.3 0 1.2 0.2 0.9 0 1.2 0 0.4 0 2.7-0.2 2.2-0.3 4.6-0.4 2.6-0.3 4.8-0.5 2.3-0.3 2.7-0.3h1.7q1.6 0 3.6 0 1.9-0.1 3.9-0.1h3.3 3q2.1 0 3.9 0.1 1.9 0 3.3 0h1.6q0.3 0 2 0.3 1.6 0.3 3.1 0.6 0.8 0.2 1.7 0.5 0.4 0.1 1.9 0.6 1.7 0.4 2.1 0.7 0.5 0.3 1.7 0.9 1.2 0.6 2.4 1.2 1.3 0.6 2.4 1.2 1.2 0.6 1.6 0.8 1.1 0.3 1.4 1.3 0 0 0 0.3 0.1 0.3 0.1 0.5l-0.1 0.6q-0.2 0.1-0.6 0.6-0.5 0.3-0.9 0.7-0.5 0.5-0.9 0.9-0.3 0.3-0.3 0.5 0 0.7 0.9 2.2 1 1.5 1.8 1.8 0.3-0.4 1.2-1.3 1-1.1 1.5-1.4 0 0 0.4 0 0.6-0.1 0.9-0.1 0.3 0 0.8 0.1 0.4 0 0.6 0 0.1 0 0.6 0.6 0.4 0.5 0.7 0.8 0.3 0.3 0.8 1.3 0.4 1.1 0.6 1.4 0 0.4 0 1.6 0.1 1.1 0.1 2.4 0 1.4 0 2.6 0.2 1 0.2 1.5 0 0.7-0.2 2.2 0 1.4 0 2.6 0 1.2-0.1 2.2 0 0.9 0 1.1 0 0.3-0.3 1.2-0.3 0.7-0.8 1.8-0.4 1-0.9 2.1-0.4 1-0.7 1.6-0.2 0.2-0.6 1.1-0.5 0.7-1.2 1.9-0.6 1.1-1.2 2.1-0.6 1.1-1.1 1.7-0.1 0.3-0.6 0.9-0.3 0.4-0.7 1.2-1.2 1.6-1.4 2.1-0.1 0.3-0.9 1.2-0.9 1.2-1.9 2.5-0.9 1.2-1.2 1.5l-4.1 4.1q-0.3 0.1-1.3 0.6-1.1 0.4-1.4 0.7-0.1 0.2-0.6 0.8-0.3 0.6-0.7 1.3-0.5 0.6-0.9 1.2-0.3 0.6-0.5 0.8-0.3 0.3-1.2 1-0.7 0.6-1.8 1.5-1 0.8-2.1 1.7-1 0.7-1.6 1.2-0.3 0.3-1.5 1.2-1.2 0.7-2.6 1.6-1.3 0.9-2.5 1.7-1.1 0.7-1.5 0.9-0.3 0.1-1.1 0.6-0.7 0.3-1.6 0.7-0.8 0.5-1.5 0.9-0.8 0.3-1.2 0.5-0.5 0.3-1.5 0.7-1.1 0.5-2.3 0.9-1 0.5-1.9 0.8-0.9 0.3-1.1 0.3-0.4 0.1-1.5 0.4-0.9 0.2-2.1 0.5-1 0.1-1.9 0.3-0.9 0.1-1.2 0.1h-1.2-5-1.9-2-4-0.8q-0.1 0-1.5-0.4-1.3-0.5-3.1-1.1-1.7-0.7-3.5-1.3-1.8-0.8-2.7-1.2-0.4-0.2-1.3-0.6-0.8-0.5-1.7-0.9-0.9-0.5-1.6-0.8-0.8-0.4-0.8-0.4-0.4-0.5-1.5-1.4-0.9-0.9-2.1-1.9-1-1.2-2.1-2.1-0.9-0.9-1-1.4-0.3-0.3-0.8-1.8-0.4-1.5-0.6-2.2 0-0.2-0.1-1.2 0-1.1 0-1.7z"/></svg>