<svg version="1.2" xmlns="http://www.w3.org/2000/svg" viewBox="0 0 350 150" width="350" height="150"><style>.a{fill:#f00}</style><path class="a" d="m42.1 102.7q4.2-1.5 6.4-5 2.3-3.4 2.3-8.5 0-5.1-3.9-8.5-3.8-3.5-9.2-5.9-5.4-2.6-10.8-5.6-5.4-3.1-9.3-9.1-3.7-6-3.7-14.7 0-13.5 8.8-21.3 8.9-7.9 25.2-7.9 4 0 9.6 0.7l2.6 12.1q-6.2-1.3-11.7-1.3-22.4 0-22.4 17.3 0 10.6 12.9 15.7 5.4 2.3 10.8 4.8 5.6 2.4 9.3 7.7 3.8 5.2 3.8 13 0 7.8-2.9 13.3-2.7 5.6-6.9 8.9-4.2 3.1-10.6 5.1-10.7 3.3-25.8 3.3l-2.7-12.6q5.4 0.9 11.1 0.9 5.7 0 9.3-0.4 3.6-0.5 7.8-2zm31.9-15l-0.8-41.3 9.5-1.8 2.1 11.1 1.4 0.3q4-4.2 6.5-6.3 2.5-2.1 7-3.8 4.6-2 10.2-2 12 0 18.4 8.1 6.5 7.9 6.5 19.1 0 11-3.9 20.6-3.7 9.6-11.6 16.5-7.8 6.8-17.2 6.8-9.3 0-16.2-5.9l0.9 39.2-14 1q1.2-49.5 1.2-61.6zm11-6.6q0 10.9 4.8 16.6 4.8 5.7 12.9 5.7 8.2 0 13.6-9.1 5.4-9.3 5.4-18.8 0-9.4-3.9-14.8-3.7-5.6-12.1-5.6-8.3 0-14.5 7.5-6.2 7.4-6.2 18.5zm116.4 3.3l-44.3 0.3q0 9.6 5.4 15.4 5.4 5.7 12.2 5.7 6.7 0 11.5-2.1 5-2.2 7.1-4.3l1.9-2.3 6.2 8.1q-8.7 10.5-27 10.5-14.7 0-22.4-8.8-7.6-8.9-7.6-24.3 0-15.6 9.6-27.3 9.7-11.9 24.9-11.9 12.1 0 17.7 8.4 5.7 8.3 5.7 21.6 0 5.6-0.9 11zm-10.8-8.6q0-10.8-3.3-16.3-3.2-5.6-11.4-5.6-8.1 0-13.5 7.2-5.3 7.1-5.4 15zm43 40.4q-9.7 0-16-5.7-6.2-5.8-6.2-15.6 0-9.7 7.1-15.9 7-6.2 16.6-6.2 9.6 0 16.4 6.2v-5.7q0-9.3-3.8-14.4-3.6-5.2-9-5.2-5.4 0-9.4 2.5-3.9 2.4-8.3 7.5l-6.7-7.6q10.2-13.2 25.6-13.2 24.3 0 24.3 27.4 0 27.5 0.2 44.9h-10.7l-0.4-6.6-0.5-0.3q-2.1 3-7.8 5.5-5.5 2.4-11.4 2.4zm18-22.2q-0.1-5.4-4.5-8.4-4.3-3-10.5-3-6.1 0-9.6 3.5-3.4 3.4-3.4 8.2 0 4.8 3.4 8.4 3.6 3.5 9.8 3.5 6.1 0 10.3-3 4.4-3.2 4.5-9.2zm41.4-26.7v6q11.1-1.3 19.1-10.2 8.1-8.8 10.5-20.7l10.5 2.4q0 0.7 0 1.4 0 6.9-5.7 15.6-5.7 8.5-15.2 14.7l24 37.3-14.4 3-21-34.8q-3.7 1.3-7.9 1.8l-0.3 31-12.2 1-0.3-42.5q0-20.4-0.7-56.4l-6.3 0.6-3.6 0.5-0.5-0.2-0.6-11.5 25.8-0.6q-1.2 51.7-1.2 61.6z"/></svg>