<svg xmlns="http://www.w3.org/2000/svg" version="1.2" viewBox="20 19 765.26 597"><style>.a{stroke:#d00;stroke-miterlimit:100;stroke-width:20}.b{fill:#fff}</style><path class="a" d="m425 492c0 0 339-27.9 350-255 1-1.1 13-201.9-347-208 0 0.9-399 5-398 300 5 1.9 24 141.1 291 167 3-0.1-5 96.1-20 110-2-0.1 86-26.9 124-114z"/><path class="b" d="m150.6 302v-92.8h27.9q17.4 0 25.2 5.6 7.9 5.5 7.9 17.9 0 8.1-5 13.5-5 5.4-13.5 6.5v0.7q21.1 3.4 21.1 21.7 0 12.6-8.2 19.7-8 7.2-22 7.2zm11.9-82.7v29.3h18q9.9 0 14.4-3.5 4.6-3.5 4.6-11.6 0-7.6-4.9-10.9-4.8-3.3-15.4-3.3zm18.7 39.2h-18.7v33.5h19.5q19.8 0 19.8-17.4 0-16.1-20.6-16.1zm77.6 44.8q-13.7 0-22.6-9.9-8.8-9.9-8.8-26.4 0-16.7 8.6-26.3 8.6-9.7 23.2-9.7 13.9 0 22.7 9.9 8.8 9.8 8.8 26.1 0 16.8-8.7 26.6-8.7 9.7-23.2 9.7zm0.3-9.6q19.7 0 19.7-26.7 0-26.4-19.8-26.4-19.6 0-19.6 26.4 0 26.7 19.7 26.7zm106.9 8.3h-11.6v-44.9q0-16.5-15.1-16.5-19.5 0-19.5 25.3v36.1h-11.5v-69.7h9.3l1.7 9.4h0.7q6.5-10.7 21.3-10.7 24.7 0 24.7 25.5zm57.3-98.4q6.8 0 6.8 7.2 0 7.3-6.8 7.3-6.7 0-6.7-7.3 0-7.2 6.7-7.2zm-38.6 127.4v-9.8q8.5 2.5 18.4 2.5 7.4 0 11.5-3.6 4.2-3.6 4.2-10.1v-68.6l-26.7-1.3v-7.8h38.3v77.1q0 11.4-7.2 17.7-7.2 6.1-20.3 6.1-10.4 0-18.2-2.2zm108.2-27.7q-13.7 0-22.6-9.9-8.8-9.9-8.8-26.4 0-16.7 8.5-26.3 8.7-9.7 23.3-9.7 13.8 0 22.6 9.9 8.8 9.8 8.8 26.1 0 16.8-8.6 26.5-8.7 9.8-23.2 9.8zm0.2-9.6q19.7 0 19.7-26.7 0-26.4-19.8-26.4-19.6 0-19.6 26.4 0 26.7 19.7 26.7zm106.9 8.3h-9.3l-1.7-9.3h-0.6q-6.7 10.6-21.3 10.6-24.8 0-24.8-25.5v-45.5h11.6v44.9q0 16.5 15 16.5 10.2 0 14.9-5.9 4.7-5.9 4.7-19.3v-36.2h11.5zm77.4-68.1l-3.1 10.5q-7.8-2.8-14.2-2.8-10.4 0-16 5.9-5.6 5.8-5.6 16.9v37.6h-11.6v-69.7h9.4l1.4 12.8h0.5q4.9-7.6 10.4-10.8 5.5-3.3 13.6-3.3 7.5 0 15.2 2.9z"/></svg>