<svg version="1.2" xmlns="http://www.w3.org/2000/svg" viewBox="0 0 550 150" width="550" height="150"><style>.a{fill:#fff}</style><path class="a" d="m97.7 65.3c0-22.4-16.4-42-39.5-42h-25.9c-2.3 0-4.5 0.9-6 2.7-1.7 1.6-2.6 3.9-2.6 6.3v87.7c0 4.8 3.6 9 8.6 9h25.9c23.1 0 39.5-19.5 39.5-41.8zm-21.9 22c0 10-7.8 19.4-18.2 19.4h-12v-61.1h12c10.4 0 18.2 9.2 18.2 19.2zm47.2-64.7c-3.1 0.1-5.7 2.8-5.7 6.1v9.5c0 3.5 2.6 6 5.7 6h8.4v63.2h-8.4c-3.1 0-5.7 2.7-5.7 6v9.6c0 3.4 2.6 6 5.7 6h38.9c3.2 0 5.7-2.6 5.7-6v-9.6c0-3.3-2.5-6-5.7-6h-8.4v-63.2h8.4c3.2 0 5.7-2.5 5.7-6v-9.5c0-3.3-2.5-6-5.7-6zm113.7 5c-0.9-3.1-3.6-5.2-6.8-5.2h-10.3c-3.1 0-6 2.1-6.9 5.2l-28.6 93c-0.2 0.6-0.3 1.2-0.3 2.1 0 3.5 2.7 6.2 6 6.2h9.3c3.1 0 5.8-2.1 6.9-5.4l5.2-17.9h26.9l5.4 17.9c0.9 3.3 3.6 5.4 6.7 5.4h9.6c3.3 0 6-2.7 6-6.2 0-0.9-0.2-1.5-0.3-2.1zm-5.1 56.3h-13.9l7-24.1zm58.5-60.8c-3.1 0-5.7 2.6-5.7 6v90.8c0 4.8 3.6 9 8.6 9h41.2c3.1 0 5.6-2.6 5.6-6v-10.4c0-3.3-2.5-6-5.6-6h-27.9v-77.4c0-3.4-2.5-6-5.7-6zm141.5 38.1c0-21.1-16.4-39.7-38-39.7-21.6 0-38 18.6-38 39.7v29.7c0 21.2 16.2 39.9 38 39.9 21.7 0 38-18.7 38-39.9zm-22 29.7c0 8.9-6.7 17.6-16 17.6-9.1 0-16-8.9-16-17.6v-29.7c0-8.8 6.9-17.4 16-17.4 9.3 0 16 8.6 16 17.4zm80.5-27.4c-3.2 0-5.7 2.7-5.7 6v10c0 3.5 2.5 6 5.7 6h15v3.9c0 8.9-6.9 17.1-16.1 17.1-9.1 0-16.3-8.8-16.3-17.7v-29.8c0-8.9 7.2-17.7 16.3-17.7 6.2 0 11 2.2 14.9 6.6 1.6 1.8 3.3 2.1 4.5 2.1 1.5 0 3-0.6 4.2-2l6.1-6.7c1-1.4 1.7-3 1.7-4.7 0-1.6-0.7-3.1-1.5-4.3-7.2-8.6-18-13.4-30-13.4-21.8 0-38.1 18.9-38.1 40.1v29.8c0 21.2 16.3 40.1 38.1 40.1 21.4 0 37.9-19.1 37.9-40.1v-16.2c0-4.8-3.7-9.1-8.7-9.1z"/></svg>