<svg xmlns="http://www.w3.org/2000/svg" version="1.2" viewBox="20 19 765.26 597"><style>.a{stroke:#d00;stroke-miterlimit:100;stroke-width:20}.b{fill:#fff}</style><path class="a" d="m425 492c0 0 339-27.9 350-255 1-1.1 13-201.9-347-208 0 0.9-399 5-398 300 5 1.9 24 141.1 291 167 3-0.1-5 96.1-20 110-2-0.1 86-26.9 124-114z"/><path class="b" d="m406.1 191l-0.2 0.3v0.9l0.1 1.1h0.1v-0.4l-0.1-1zm-19.1 66.5l-0.3 0.2 0.4 0.3v-0.5zm19.3-59.4l-0.3-0.3v0.2l0.3 0.3zm-0.2-4.4h-0.1l-0.1 0.7h0.2zm0.5 87.5v33.6l-0.2 2.5h-0.1q-1.9-1.1-6.5-5.9-1.2-0.7-14.9-14.4-3.3-2.8-4.1-4.7-0.3-0.7-0.3-1.2v-1.7l-0.1-1.2 0.1-1.2v-1.5l0.2-0.2-0.2-0.4 0.3-4.2-0.3-3.6h0.2l-0.2-0.4 0.3-2-0.1-3.6v-5.2l0.7-7.9q-0.4 0-0.4 1.1h-0.3v-0.5q0-1.8 0.3-1.8 1.8 0 1.8-0.5h-1.8v-0.4l2.2 0.1v0.5h0.2q0.8 0 0.9-0.5v-0.1l-3.2-0.3v-0.1l0.4-2.3v-0.2l-0.7 0.2h-0.1q0-0.8-0.5-1l-0.1 1.1h-1.1l-0.6-0.1-1.1 0.1h-20.4l-0.2-0.6h-0.3q0 0.6-0.9 0.6-0.6 0-0.6-0.7h-0.2q0 0.4-0.3 0.4-0.3 0-0.3-0.4h-0.5v0.4l-0.4 1.7 0.1 2.4-0.8 0.3q0 0.3 0.8 0.6v2.1l0.2-0.1h0.3v0.4h-0.5q0.2 4.5 0.5 5.7l-0.2 0.1 0.2 0.8v1.8l-0.2 5.8 0.2 2.1-0.2 0.1v0.2l0.2 0.6-0.2 1.4 0.2 2.4v4.4l-0.2 0.6 0.2 0.6v0.3h-0.2l0.2 0.8v0.6l-0.2 3q-5.3 0.7-8.8 0.7l-6.2-0.1-0.1 0.1h-0.2l-0.7-0.1-9.6-0.3-0.1-0.1v-0.3l-0.2-4.1 0.2-0.9-0.2-0.7 0.2-5.2v-14.6q0-2.3 0.9-11.2-0.4 0-0.8 3.1h-0.3v-4.1l-0.1-0.1 0.1-0.2v-1l-0.1-0.1 0.1-0.3-0.1-3.7v-0.3l0.1-1.7-0.1-0.1v-0.2l0.1-0.6h-0.1l0.1-0.2v-1.4l-0.1-0.7 0.1-0.1-0.1-1.6 0.1-2.4-0.1-1.5h0.1l-0.1-0.1 0.1-1.1 0.3-5.7-0.3-0.7 0.9-21.7-0.2-1.2v-4.1h-0.3l0.7-9.2h-0.4q0.3-4.4-0.2-5.8v-22.2l0.2-2.6h0.1q1.9 1.1 6.5 6 1.2 0.7 14.9 14.4 3.3 2.8 4.1 4.7h-0.1q0 10.1-0.6 27.6v7.9l-1.1 0.1v0.2q0 0.4 1.1 0.6v0.6q0 1.3 0.3 2l1.3-0.3q1.4 0.6 4.4 0.6h2l0.7-0.1v-0.2h-0.7l0.2-0.3h1.4v0.3h-0.6v0.2l0.9 0.1 0.2-0.1h0.1l12-0.2 1.4-0.1 0.2 0.8q0.3 0 0.3-0.5l0.3-0.2h2.5l1 0.2 0.2-0.2v-0.1q-0.7 0-0.7-0.6v-1.3l0.7-0.1v-0.2l-0.7-0.3 0.1-2.6v-11.8l0.2-2.1-0.2-0.8 0.2-0.2-0.2-0.4 0.2-4v-0.1l0.1-0.6-0.1-0.6 0.1-0.5-0.1-0.1 0.1-2.3v-2.6l0.1-6.5-0.1-1q0-0.8 2.1-0.8h20.8l0.2 0.1 0.1-0.1h0.5q1.1 0 1.2 0.4l-0.1 0.8 0.1 0.6h0.1v-1.7h0.5l0.1 4.3-0.1 1.2 0.3 3.3-0.2 1 0.2 2.2-0.2 10.4q0 0.4-0.4 0.4v0.2l0.1 1.3-0.1 0.2 0.1 0.7v1.7l0.2 0.4v0.3h-0.2l-0.1 9.1v4.5l0.1 3.9-0.1 0.5q0.3 0.4 0.4 3.6l0.2 0.5-0.2 2.4 0.2 0.6-0.2 1-0.1 18.3v11.8l-0.2 1.6 0.2 1.3v2.8l-0.2 1.7 0.2 0.5-0.2 0.1zm14-93.8l1.2-0.2 2.8 0.3 0.1-0.1 1.1 0.1 6.3 0.2 0.1-0.2h0.2l0.9 0.2h1.4l0.6 0.1 0.6-0.3 0.9 0.3v-0.1l0.2 0.1h4.1l0.1-0.1 0.2 0.1h2.7q0 6.3-0.7 12.9l0.2 0.6-0.3 0.9h0.3v-0.3l0.1 0.1h0.1l-0.1 3.4v1.5l-0.1 0.2 0.1 0.1v1.4q0 1.1-0.4 1.1l0.3 10.9v1.3l0.2 1.2-0.4 15.8 0.2 0.1v0.2l-0.2 1.6v0.7l0.2 0.7-0.2 1v2.8l-0.1 1q0.3 0.7 0.3 2v3.3l0.1 5-0.1 5.3v5.9q0 3.1-0.3 3.1l0.3 0.9v7.7l0.1 2.8-0.1 0.2 0.1 1.5v10l-0.1 1.7q0.2 1.1 0.2 3.2l-0.1 2.1 0.1 0.2v0.1q-0.2 0.6-0.4 0.6 0.2 0 0.4 3.8h-0.1l0.1 0.2v2.6l-0.1 0.7 0.1 1v0.9l-0.1 1.5 0.1 1.5-0.1 0.2v0.1l0.1 0.7v0.6l-0.1 0.9 0.1 0.6-0.2 1.8q-0.8 0-8.6-8.4-10.6-10.6-10.6-11.3l-2.4-3.2v0.1l0.9 1.3v0.3h-0.1q-4.7-4.2-4.7-5.4l-0.3-0.5v-1.1h0.2l0.8 0.5v-0.1q-1-0.9-1-1.7v-2l-0.1-2.4 0.1-0.4-0.1-0.7 0.1-4.7v-1.2l-0.1-4.2 0.1-4.4v-2.8l-0.1-3.3h0.1l-0.1-0.2 0.1-1-0.1-1.5 0.1-0.8-0.1-2.5v-2.7l-0.1-3.5 0.1-1.2-0.1-0.5h0.1l-0.1-0.5 0.9-5.2-0.7-14.6h0.2l-0.2-0.2v-2l0.2-0.4-0.2-0.8v-15.9l0.2-3.7-0.2-0.6 0.7-5.6v-0.4h-0.2l0.2-1.4v-3.8l0.2-1h0.2q0 0.5 0.3 0.5-0.5-1.9-0.7-1.9l0.2-0.7v-3.5l-0.2-1.1h0.4q0.3 0 0.3 0.4h0.3v-0.1l-0.1-0.2v-0.1zm22.8 19.4h-0.2v0.6h0.2zm-23.3 86.9h-0.2v0.3l0.2 0.2h0.2z"/></svg>