<svg xmlns="http://www.w3.org/2000/svg" version="1.2" viewBox="14.74 19 765.26 597"><style>.a{fill:#d00;stroke:#fff;stroke-miterlimit:100;stroke-width:20}.b{fill:#fff}</style><path class="a" d="m375 492c0 0-339-27.9-350-255-1-1.1-13-201.9 347-208 0 0.9 399 5 398 300-5 1.9-24 141.1-291 167-3-0.1 5 96.1 20 110 2-0.1-86-26.9-124-114z"/><path class="b" d="m211.3 289h-33.3q10.3-44.4 14.4-94.9 0-1 2.3-2.9 2.4-1.9 4.1-1.9h33.3q-5.4 22.6-9.1 48.4 10.1 1.9 12.9 3 0 4.6-1.6 6.7-7.6 0.6-12.9 1.7-2.3 17.9-3.7 35.1 0 0.9-2.3 2.9-2.4 1.9-4.1 1.9zm54.5 0h-33.3q10.2-43.6 14.4-94.9 0-1 2.3-2.9 2.3-1.9 4-1.9h33.3q-10.2 43.4-14.4 94.9 0 0.9-2.4 2.9-2.3 1.9-3.9 1.9zm78 1.5q10.6-9 15.8-26.1 5.3-17.1 5.3-36 0-19-3.9-34.3 0-1 2.4-3 2.4-1.9 4.1-1.9 10.6 2 18.1 8.8 14.2 13 14.2 36 0 17.5-8.8 31.6-9.7 15.7-26.8 21.6-9.4 3.3-20.4 3.3zm14.5-103.1q-10.7 9-16 26.1-5.3 17.1-5.3 36.1 0 19 4 34.1 0 1.1-2.4 3-2.3 2-4.1 2-16.1-3.2-24.4-16.1-7.9-12.4-7.9-28.6 0-17.5 8.8-31.8 9.7-15.6 26.8-21.5 9.4-3.3 20.5-3.3zm91.3 101.6h-34.1q9.8-35.5 14.5-94.9 0-1 2.4-2.9 2.4-1.9 4.1-1.9h34q-10.4 44.3-14.5 94.8 0 0.9-2.4 2.9-2.3 2-4 2zm39.2-36.7q1.1-2.1 4.1-3.8 3.1-1.7 5.7-1.7-3.6 31.4-5.2 36.9-0.7 1.5-2.6 3.4-2 1.9-3.3 1.9h-28.2q8.7-6.5 16.4-16.3 7.7-9.8 13.1-20.4zm102.1 36.7h-34.1q-5.7-45.6-14.4-79.1 4.2-8.6 7.2-15.8 0.6-1.1 2.7-3 2.2-1.8 3.7-1.8h23.3q3 22.1 8.1 49.3 5.1 27.1 9.9 45.6 0 0.9-2.3 2.9-2.4 1.9-4.1 1.9zm-58.5-15.3v2.3l0.2 8.2q0 0.9-2.4 2.9-2.4 1.9-4.1 1.9h-23.3q11.5-19.6 35.9-71.9 0.6 1.9 0.6 5.3 0 3.4-1 9.8-1 6.5-2.5 15.3-1.5 8.7-2.3 14.1 10.6 1.6 15.3 3.6 0 4.4-1.4 6.5-7.7 0.7-15 2z"/></svg>