<svg version="1.2" xmlns="http://www.w3.org/2000/svg" viewBox="0 0 380 150" width="380" height="150"><style>.a{fill:#f00}</style><path class="a" d="m70.9 21.5l2.5 3.9-4.9 12.8q-4.2-0.5-8.9-0.5-10.5 0-18.3 3.7-7.8 3.6-11.8 9.6-7.7 11.9-7.7 26 0 18.4 5.7 28.2 5.7 9.6 13.7 9.6 10.2 0 17.1-8.1 6.9-8.2 11.7-24.9 0.3-1.2 1-1.2 2.1 0 4.7 2.1-3 20.5-13.8 32.8-10.7 12.3-24 12.3-13.2 0-21.3-11.7-8.1-11.7-8.1-30.9 0-16.5 8.5-30.9 4.7-7.9 11.6-14.4 6.9-6.4 17.8-11.4 11-5 24.5-7zm56.1 29l3.2 2.9-3.6 17.3q-2-0.6-5.3-0.6-3.3 0-6.3 2.1-3 2-5.6 7.1-2.5 5.2-4.3 10.7-1.8 5.5-3.6 11.8-1.8 6.4-3 10.5-1.1 4.1-4.3 12.9-2 2.3-5.6 2.3-1.2 0-1.2-0.6 3.9-19.1 3.9-37.8 0-18.9-4.7-36.3l3.6-2.6 12.2 6.5q1 10.8 1 19v2.1q9.3-21.7 23.6-27.3zm56.7 17.3q-1.6 6.9-6.6 12.4-5 5.6-11.2 8.9-11.6 6-20.3 7.6 0.6 7.5 3.9 11.1 3.3 3.6 8 3.6 13.1 0 23.8-22.2 0.2-0.9 1.5-0.9 1.3 0 4.1 2.1-6.5 15.6-15.9 25.8-9.4 10.1-18.6 10.1-9.3 0-14.6-6.8-5.1-6.7-5.1-18.1 0-15.8 8.5-29.1 4.7-7.2 13.1-12.6 8.6-5.6 20.3-8.3 9.1 3.2 9.1 16.4zm-17.6-4.5q-6.2 0-13 7.4-6.7 7.1-7.5 20 12.5-3.3 19-9.5 6.8-6.5 6.8-12.6 0-2.3-1.3-3.8-1.4-1.5-4-1.5zm71.9-9l12.1-5.3 3.6 2.1q-4.9 14.6-4.9 33.6 0 8.1 1.3 22.5 1.4 14.4 2.6 19.5 0 0.5-2.2 0.5-2.3 0-4.4-2.1-4.8-11.1-7.6-32.7-6.4 15-15.2 24.4-8.7 9.5-15.8 9.5-13.5 0-13.5-17 0-9.7 4-18.7 3.9-9 10.5-15.8 13.1-13.3 29.5-20.5zm-22.4 54q4.9 0 10.7-7.6 6-7.9 10.7-22-0.2-2-0.2-8 0-6 0.2-8.9-13 7.4-20.9 15.8-8 8.2-8 19.4 0 11.3 7.5 11.3zm95.2-57.8l3.1 2.9-3.6 17.3q-1.9-0.6-5.2-0.6-3.3 0-6.3 2-3 2.1-5.6 7.2-2.5 5.1-4.3 10.7-1.8 5.5-3.6 11.8-1.8 6.3-3 10.5-1.1 4.1-4.4 12.9-1.9 2.3-5.5 2.3-1.2 0-1.2-0.6 3.9-19.1 3.9-37.8 0-18.9-4.7-36.3l3.6-2.6 12.2 6.5q1 10.8 1 19v2.1q9.3-21.7 23.6-27.3zm56.7 17.3q-1.7 6.9-6.6 12.4-5 5.6-11.3 8.9-11.5 6-20.2 7.6 0.6 7.5 3.9 11.1 3.3 3.6 7.9 3.6 13.2 0 23.9-22.2 0.1-0.9 1.5-0.9 1.3 0 4 2.1-6.4 15.6-15.9 25.8-9.3 10.1-18.6 10.1-9.3 0-14.5-6.8-5.1-6.7-5.1-18.1 0-15.8 8.5-29.1 4.7-7.2 13.1-12.6 8.5-5.6 20.2-8.3 9.2 3.2 9.2 16.4zm-17.6-4.5q-6.3 0-13 7.3-6.8 7.2-7.5 20.1 12.4-3.3 19-9.6 6.8-6.4 6.8-12.6 0-2.2-1.4-3.7-1.3-1.5-3.9-1.5z"/></svg>