<svg xmlns="http://www.w3.org/2000/svg" width="57" height="57" viewBox="0 0 57 57">
  <g id="Grupo_22641" data-name="Grupo 22641" transform="translate(-769 -6749)">
    <g id="Grupo_12210" data-name="Grupo 12210" transform="translate(769 6749)">
      <g id="Elipse_354" data-name="Elipse 354" fill="none" stroke="orange" stroke-width="2">
        <circle cx="28.5" cy="28.5" r="28.5" stroke="none"/>
        <circle cx="28.5" cy="28.5" r="27.5" fill="none"/>
      </g>
    </g>
    <g id="Iconly_Light-Outline_Arrow---Down-2" data-name="Iconly/Light-Outline/Arrow---Down-2" transform="translate(790.714 6773.429)">
      <g id="Arrow---Down-2" transform="translate(0 0)">
        <path id="Stroke-1" d="M.449.449A.679.679,0,0,1,1.332.383l.076.066L7.262,6.3,13.115.449A.679.679,0,0,1,14,.383l.076.066a.679.679,0,0,1,.066.884l-.066.076L7.742,7.742a.679.679,0,0,1-.884.066l-.076-.066L.449,1.408A.679.679,0,0,1,.449.449Z" transform="translate(-0.25 -0.25)" fill="orange"/>
      </g>
    </g>
  </g>
</svg>
