<svg xmlns="http://www.w3.org/2000/svg" width="23.25" height="17.659" viewBox="0 0 23.25 17.659">
  <g id="Grupo_12238" data-name="Grupo 12238" transform="translate(-793 -8425.75)">
    <g id="Iconly_Light-Outline_Arrow---Up-2" data-name="Iconly/Light-Outline/Arrow---Up-2" transform="translate(793 8431.432)">
      <g id="Arrow---Up-2" transform="translate(21.841 11.977) rotate(180)">
        <path id="Stroke-1" d="M.31.31a1.057,1.057,0,0,1,1.376-.1L1.8.31,10.92,9.425,20.037.31a1.057,1.057,0,0,1,1.376-.1l.119.1a1.057,1.057,0,0,1,.1,1.376l-.1.119-9.864,9.864a1.057,1.057,0,0,1-1.376.1l-.119-.1L.31,1.8A1.057,1.057,0,0,1,.31.31Z" transform="translate(0)" fill="#060003"/>
      </g>
    </g>
    <line id="Línea_23" data-name="Línea 23" x2="22.545" transform="translate(793.705 8426.5)" fill="none" stroke="#060003" stroke-width="1.5"/>
  </g>
</svg>
